<?xml version="1.0" encoding="utf-8"?>
<!-- Generator: Adobe Illustrator 27.5.0, SVG Export Plug-In . SVG Version: 6.00 Build 0)  -->
<svg version="1.1" xmlns="http://www.w3.org/2000/svg" xmlns:xlink="http://www.w3.org/1999/xlink" x="0px" y="0px"
	 viewBox="0 0 350 350" style="enable-background:new 0 0 350 350;" xml:space="preserve">
<g id="Layer_1">
	<rect y="0.004" style="fill:#E8E8E8;" width="350" height="350"/>
</g>
<g id="Layer_2">
	<rect x="160.127" y="191.689" style="fill:#3D3D3D;" width="1.265" height="158.311"/>
	<rect x="138.14" y="181.326" style="fill:#3D3D3D;" width="1.265" height="18.113"/>
	<rect x="169.602" y="139.257" style="fill:#3D3D3D;" width="1.266" height="95.067"/>
	<rect x="164.199" y="144.702" style="fill:#3D3D3D;" width="1.266" height="80.028"/>
	<rect x="196.783" y="189.295" style="fill:#3D3D3D;" width="1.266" height="14.994"/>
	<rect x="180.489" y="180.736" style="fill:#3D3D3D;" width="1.265" height="31.9"/>
	<rect x="191.38" y="209.15" style="fill:#3D3D3D;" width="1.265" height="140.85"/>
	<rect x="194.082" y="213.764" style="fill:#3D3D3D;" width="1.266" height="136.236"/>
	<rect x="188.875" y="209.15" style="fill:#3D3D3D;" width="1.266" height="72.73"/>
	<rect x="164.199" y="239.191" style="fill:#3D3D3D;" width="1.266" height="20.205"/>
	<rect x="117.425" y="176.855" style="fill:#3D3D3D;" width="29.127" height="1.266"/>
	
		<rect x="152.896" y="174.227" transform="matrix(0.7071 -0.7071 0.7071 0.7071 -85.646 162.6555)" style="fill:#3D3D3D;" width="1.266" height="20.98"/>
	
		<rect x="143.521" y="219.61" transform="matrix(0.7069 -0.7073 0.7073 0.7069 -121.6541 169.8905)" style="fill:#3D3D3D;" width="1.266" height="24.233"/>
	
		<rect x="188.953" y="230.548" transform="matrix(0.7067 -0.7075 0.7075 0.7067 -115.5259 205.079)" style="fill:#3D3D3D;" width="1.266" height="22.658"/>
	
		<rect x="112.855" y="209.222" transform="matrix(0.7073 -0.707 0.707 0.7073 -124.4197 145.5089)" style="fill:#3D3D3D;" width="1.265" height="27.53"/>
	
		<rect x="156.967" y="170.545" transform="matrix(0.7071 -0.7071 0.7071 0.7071 -81.8507 164.4551)" style="fill:#3D3D3D;" width="1.265" height="20.98"/>
	
		<rect x="142.171" y="186.555" transform="matrix(0.7073 -0.7069 0.7069 0.7073 -94.2737 157.2888)" style="fill:#3D3D3D;" width="1.266" height="11.868"/>
	
		<rect x="129.816" y="201.77" transform="matrix(0.7073 -0.7069 0.7069 0.7073 -108.6454 153.0078)" style="fill:#3D3D3D;" width="1.266" height="11.868"/>
	
		<rect x="131.334" y="224.833" transform="matrix(0.7073 -0.7069 0.7069 0.7073 -124.5024 160.8235)" style="fill:#3D3D3D;" width="1.265" height="11.868"/>
	
		<rect x="149.891" y="93.717" transform="matrix(0.7071 -0.7071 0.7071 0.7071 -29.5982 136.9578)" style="fill:#3D3D3D;" width="1.265" height="20.98"/>
	<polygon style="fill:#3D3D3D;" points="139.224,104.498 131.358,96.661 132.254,95.766 140.118,103.604 	"/>
	
		<rect x="142.368" y="197.165" transform="matrix(0.7074 -0.7068 0.7068 0.7074 -101.9322 160.6011)" style="fill:#3D3D3D;" width="1.265" height="12.489"/>
	<rect x="147.717" y="51.024" style="fill:#3D3D3D;" width="1.266" height="18.111"/>
	
		<rect x="151.945" y="66.863" transform="matrix(0.7074 -0.7068 0.7068 0.7074 -7.0274 129.2394)" style="fill:#3D3D3D;" width="1.266" height="12.489"/>
	<rect x="144.122" y="55.552" style="fill:#3D3D3D;" width="1.265" height="18.111"/>
	<rect x="133.543" y="58.079" style="fill:#3D3D3D;" width="1.265" height="16.206"/>
	
		<rect x="150.148" y="70.646" transform="matrix(0.7073 -0.7069 0.7069 0.7073 -12.0216 129.8289)" style="fill:#3D3D3D;" width="1.265" height="17.574"/>
	
		<rect x="156.666" y="132.784" transform="matrix(0.7064 -0.7078 0.7078 0.7064 -50.6077 151.4768)" style="fill:#3D3D3D;" width="1.265" height="7.922"/>
	
		<rect x="142.026" y="128.698" transform="matrix(0.7064 -0.7078 0.7078 0.7064 -52.0126 139.9244)" style="fill:#3D3D3D;" width="1.265" height="7.921"/>
	
		<rect x="156.388" y="154.073" transform="matrix(0.7065 -0.7078 0.7078 0.7065 -65.7571 157.5219)" style="fill:#3D3D3D;" width="1.265" height="7.922"/>
	
		<rect x="120.676" y="182.83" transform="matrix(0.7064 -0.7078 0.7078 0.7064 -96.5952 140.6962)" style="fill:#3D3D3D;" width="1.265" height="7.922"/>
	
		<rect x="123.927" y="205.297" transform="matrix(0.7064 -0.7078 0.7078 0.7064 -111.5445 149.6032)" style="fill:#3D3D3D;" width="1.265" height="7.922"/>
	
		<rect x="150.796" y="138.621" transform="matrix(0.7064 -0.7078 0.7078 0.7064 -56.4623 149.0474)" style="fill:#3D3D3D;" width="1.265" height="7.922"/>
	<polygon style="fill:#3D3D3D;" points="181.004,126.531 169.815,115.445 170.71,114.551 181.898,125.637 	"/>
	<polygon style="fill:#3D3D3D;" points="181.311,218.965 175.856,213.531 176.75,212.637 182.206,218.069 	"/>
	<polygon style="fill:#3D3D3D;" points="160.306,229.615 154.851,224.182 155.745,223.287 161.201,228.721 	"/>
	<polygon style="fill:#3D3D3D;" points="150.748,302.6 145.292,297.166 146.188,296.272 151.643,301.705 	"/>
	
		<rect x="203.102" y="143.361" transform="matrix(0.7072 -0.7071 0.7071 0.7072 -44.9734 187.3896)" style="fill:#3D3D3D;" width="1.265" height="9.254"/>
	
		<rect x="208.283" y="143.361" transform="matrix(0.7072 -0.7071 0.7071 0.7072 -43.4564 191.0513)" style="fill:#3D3D3D;" width="1.265" height="9.254"/>
	
		<rect x="205.469" y="128.899" transform="matrix(0.7072 -0.7071 0.7071 0.7072 -34.0548 184.8283)" style="fill:#3D3D3D;" width="1.265" height="9.254"/>
	<polygon style="fill:#3D3D3D;" points="176.227,135.046 166.986,125.763 167.88,124.869 177.122,134.151 	"/>
	
		<rect x="174.933" y="96.305" transform="matrix(0.7071 -0.7071 0.7071 0.7071 -19.9485 153.7042)" style="fill:#3D3D3D;" width="1.265" height="9.255"/>
	
		<rect x="133.914" y="108.57" transform="matrix(0.7072 -0.707 0.707 0.7072 -41.7782 128.7413)" style="fill:#3D3D3D;" width="1.265" height="12.484"/>
	
		<rect x="186.602" y="84.407" transform="matrix(0.7071 -0.7071 0.7071 0.7071 -8.1164 158.4743)" style="fill:#3D3D3D;" width="1.266" height="9.255"/>
	<polygon style="fill:#3D3D3D;" points="216.923,130.044 206.87,119.936 207.764,119.041 217.816,129.149 	"/>
	<polygon style="fill:#3D3D3D;" points="241.923,149.77 231.87,139.663 232.764,138.768 242.816,148.876 	"/>
	
		<rect x="185.816" y="109.557" transform="matrix(0.7077 -0.7065 0.7065 0.7077 -27.3901 165.6008)" style="fill:#3D3D3D;" width="1.265" height="12.694"/>
	
		<rect x="183.35" y="88.92" transform="matrix(0.7077 -0.7065 0.7065 0.7077 -13.5314 157.8266)" style="fill:#3D3D3D;" width="1.265" height="12.694"/>
	
		<rect x="210.056" y="238.01" transform="matrix(0.7072 -0.7071 0.7071 0.7072 -110.5199 220.2975)" style="fill:#3D3D3D;" width="1.265" height="11.122"/>
	
		<rect x="167.946" y="257.321" transform="matrix(0.7071 -0.7071 0.7071 0.7071 -136.5129 196.2111)" style="fill:#3D3D3D;" width="1.265" height="11.122"/>
	
		<rect x="163.453" y="236.122" transform="matrix(0.7075 -0.7067 0.7067 0.7075 -118.3123 187.637)" style="fill:#3D3D3D;" width="8.161" height="1.266"/>
	<rect x="167.533" y="240.731" style="fill:#3D3D3D;" width="1.266" height="15.613"/>
	<rect x="172.937" y="224.201" style="fill:#3D3D3D;" width="1.265" height="11.656"/>
	
		<rect x="166.788" y="237.663" transform="matrix(0.7075 -0.7068 0.7068 0.7075 -118.4304 190.4716)" style="fill:#3D3D3D;" width="8.161" height="1.266"/>
	
		<rect x="190.634" y="206.094" transform="matrix(0.7076 -0.7066 0.7066 0.7076 -89.1405 198.0161)" style="fill:#3D3D3D;" width="8.16" height="1.265"/>
	<rect x="199.485" y="193.908" style="fill:#3D3D3D;" width="1.266" height="14.992"/>
	
		<rect x="193.336" y="210.705" transform="matrix(0.7075 -0.7067 0.7067 0.7075 -91.6106 201.321)" style="fill:#3D3D3D;" width="8.16" height="1.265"/>
	<rect x="196.784" y="217.473" style="fill:#3D3D3D;" width="1.265" height="104.143"/>
	
		<rect x="196.038" y="214.414" transform="matrix(0.7075 -0.7067 0.7067 0.7075 -93.4416 204.3177)" style="fill:#3D3D3D;" width="8.16" height="1.266"/>
	
		<rect x="167.143" y="252.381" transform="matrix(0.7076 -0.7066 0.7066 0.7076 -128.7186 194.9765)" style="fill:#3D3D3D;" width="8.16" height="1.265"/>
	
		<rect x="165.522" y="296.473" transform="matrix(0.7076 -0.7066 0.7066 0.7076 -160.345 206.7097)" style="fill:#3D3D3D;" width="8.16" height="1.265"/>
	
		<rect x="182.726" y="283.687" transform="matrix(0.7076 -0.7066 0.7066 0.7076 -146.2834 215.142)" style="fill:#3D3D3D;" width="8.16" height="1.265"/>
	
		<rect x="203.336" y="306.349" transform="matrix(0.7075 -0.7067 0.7067 0.7075 -156.2764 236.3637)" style="fill:#3D3D3D;" width="8.16" height="1.266"/>
	<rect x="183.472" y="188.394" style="fill:#3D3D3D;" width="1.266" height="15.896"/>
	
		<rect x="186.174" y="202.646" transform="matrix(0.7066 -0.7076 0.7076 0.7066 -91.4739 192.853)" style="fill:#3D3D3D;" width="1.266" height="8.16"/>
	
		<rect x="210.402" y="209.536" transform="matrix(0.7076 -0.7066 0.7066 0.7076 -85.7931 213.0159)" style="fill:#3D3D3D;" width="8.161" height="1.264"/>
	
		<rect x="220.347" y="213.952" transform="matrix(0.7077 -0.7065 0.7065 0.7077 -86.0066 221.2832)" style="fill:#3D3D3D;" width="8.161" height="1.264"/>
	<rect x="190.114" y="119.936" style="fill:#3D3D3D;" width="1.266" height="51.784"/>
	<polygon style="fill:#3D3D3D;" points="181.384,181.63 191.38,171.722 190.485,170.827 180.489,180.735 	"/>
	<polygon style="fill:#3D3D3D;" points="111.334,192.432 121.331,182.523 120.436,181.629 110.44,191.537 	"/>
	<polygon style="fill:#3D3D3D;" points="83.749,189.453 93.745,179.545 92.851,178.65 82.854,188.559 	"/>
	<polygon style="fill:#3D3D3D;" points="100.464,180.405 110.461,170.497 109.565,169.602 99.57,179.51 	"/>
	<polygon style="fill:#3D3D3D;" points="73.51,170.005 83.506,160.097 82.611,159.202 72.615,169.11 	"/>
	<polygon style="fill:#3D3D3D;" points="60.271,161.974 70.268,152.065 69.373,151.171 59.377,161.079 	"/>
	<polygon style="fill:#3D3D3D;" points="122.731,233.14 132.727,223.231 131.832,222.337 121.837,232.245 	"/>
	<rect x="186.348" y="127.801" style="fill:#3D3D3D;" width="1.266" height="39.197"/>
	<polygon style="fill:#3D3D3D;" points="180.266,174.227 187.613,167 186.719,166.105 179.371,173.333 	"/>
	<polygon style="fill:#3D3D3D;" points="241.972,149.77 246.092,145.691 245.197,144.796 241.077,148.876 	"/>
	<polygon style="fill:#3D3D3D;" points="146.884,192.164 154.232,184.936 153.337,184.042 145.989,191.27 	"/>
	<polygon style="fill:#3D3D3D;" points="184.367,189.295 194.362,179.388 193.468,178.493 183.472,188.401 	"/>
	<polygon style="fill:#3D3D3D;" points="122.204,207.795 132.199,197.887 131.305,196.993 121.309,206.9 	"/>
	<polygon style="fill:#3D3D3D;" points="145.561,206.805 155.556,196.898 154.661,196.003 144.665,205.911 	"/>
	<polygon style="fill:#3D3D3D;" points="131.344,209.347 140.396,200.334 139.501,199.439 130.449,208.453 	"/>
	<polygon style="fill:#3D3D3D;" points="111.807,221.081 124.334,208.598 123.438,207.703 110.912,220.188 	"/>
	<polygon style="fill:#3D3D3D;" points="207.23,171.843 217.226,161.935 216.331,161.041 206.335,170.949 	"/>
	<rect x="169.815" y="83.547" style="fill:#3D3D3D;" width="1.265" height="31.9"/>
	<rect x="188.282" y="45.007" style="fill:#3D3D3D;" width="1.265" height="31.952"/>
	<rect x="156.239" y="68.506" style="fill:#3D3D3D;" width="1.266" height="31.9"/>
	<rect x="148.101" y="118.563" style="fill:#3D3D3D;" width="1.266" height="6.42"/>
	<polygon style="fill:#3D3D3D;" points="170.71,84.44 176.154,79.04 175.26,78.145 169.815,83.546 	"/>
	<polygon style="fill:#3D3D3D;" points="212.722,112.892 201.533,101.805 202.428,100.911 213.617,111.997 	"/>
	<polygon style="fill:#3D3D3D;" points="188.713,82.387 177.524,71.302 178.419,70.406 189.608,81.492 	"/>
	<rect x="201.533" y="69.907" style="fill:#3D3D3D;" width="1.266" height="31.9"/>
	<rect x="215.691" y="108.066" style="fill:#3D3D3D;" width="1.266" height="20.208"/>
	<rect x="212.984" y="132.241" style="fill:#3D3D3D;" width="1.266" height="15.131"/>
	<polygon style="fill:#3D3D3D;" points="202.428,70.8 212.424,60.893 211.528,59.998 201.533,69.906 	"/>
	<polygon style="fill:#3D3D3D;" points="179.59,54.886 189.586,44.978 188.69,44.083 178.695,53.991 	"/>
	<rect x="211.148" y="180.693" style="fill:#3D3D3D;" width="1.265" height="31.9"/>
	<polygon style="fill:#3D3D3D;" points="212.042,181.587 222.038,171.679 221.144,170.784 211.148,180.691 	"/>
	<rect x="233.874" y="196.8" style="fill:#3D3D3D;" width="1.265" height="37.823"/>
	<polygon style="fill:#3D3D3D;" points="234.245,197.693 224.249,187.785 225.144,186.891 235.139,196.798 	"/>
	
		<rect x="109.823" y="159.767" transform="matrix(0.7071 -0.7071 0.7071 0.7071 -88.0386 127.9744)" style="fill:#3D3D3D;" width="1.265" height="20.979"/>
	
		<rect x="87.428" y="154.262" transform="matrix(0.7071 -0.7071 0.7071 0.7071 -90.7055 110.5257)" style="fill:#3D3D3D;" width="1.265" height="20.979"/>
	
		<rect x="75.718" y="148.547" transform="matrix(0.7071 -0.7071 0.7071 0.7071 -90.094 100.5713)" style="fill:#3D3D3D;" width="1.265" height="20.979"/>
	<rect x="136.337" y="144.702" style="fill:#3D3D3D;" width="29.128" height="1.266"/>
	<rect x="133.298" y="129.38" style="fill:#3D3D3D;" width="21.382" height="1.265"/>
	<rect x="206.31" y="160.058" style="fill:#3D3D3D;" width="1.265" height="80.028"/>
	<rect x="199.568" y="162.081" style="fill:#3D3D3D;" width="1.266" height="5.044"/>
	
		<rect x="142.088" y="239.774" transform="matrix(0.7073 -0.707 0.707 0.7073 -125.1794 178.5086)" style="fill:#3D3D3D;" width="21.738" height="1.266"/>
	<rect x="166.268" y="261.012" style="fill:#3D3D3D;" width="1.266" height="44.494"/>
	<rect x="204.082" y="309.418" style="fill:#3D3D3D;" width="1.265" height="40.586"/>
	<rect x="201.869" y="326.166" style="fill:#3D3D3D;" width="1.266" height="23.838"/>
	<rect x="171.354" y="310.043" style="fill:#3D3D3D;" width="1.265" height="39.961"/>
	<rect x="150.377" y="242.281" style="fill:#3D3D3D;" width="1.266" height="87.43"/>
	<rect x="183.472" y="286.754" style="fill:#3D3D3D;" width="1.266" height="63.25"/>
	
		<rect x="198.908" y="167.766" transform="matrix(0.7071 -0.7071 0.7071 0.7071 -64.5648 192.0331)" style="fill:#3D3D3D;" width="1.266" height="12.387"/>
	
		<rect x="218.204" y="193.747" transform="matrix(0.7071 -0.7071 0.7071 0.7071 -77.2841 213.285)" style="fill:#3D3D3D;" width="1.265" height="12.387"/>
	
		<rect x="217.027" y="226.936" transform="matrix(0.7071 -0.7071 0.7071 0.7071 -101.0961 222.1744)" style="fill:#3D3D3D;" width="1.265" height="12.387"/>
	
		<rect x="223.403" y="146.006" transform="matrix(0.7071 -0.7071 0.7071 0.7071 -42.0013 203.0033)" style="fill:#3D3D3D;" width="1.266" height="12.388"/>
	<polygon style="fill:#3D3D3D;" points="234.059,230.061 221.093,217.021 221.987,216.127 234.953,229.167 	"/>
	
		<rect x="220.518" y="173.921" transform="matrix(0.7071 -0.7071 0.7071 0.7071 -62.5881 209.1153)" style="fill:#3D3D3D;" width="1.265" height="12.387"/>
	<rect x="203.102" y="177.892" style="fill:#3D3D3D;" width="1.265" height="24.642"/>
	<rect x="225.08" y="183.676" style="fill:#3D3D3D;" width="13.011" height="1.266"/>
	<polygon style="fill:#3D3D3D;" points="207.204,235.431 224.109,218.625 223.216,217.73 206.31,234.535 	"/>
	<polygon style="fill:#3D3D3D;" points="160.161,172.8 177.066,155.994 176.172,155.099 159.266,171.904 	"/>
	<polygon style="fill:#3D3D3D;" points="172.676,130.608 189.582,113.803 188.688,112.907 171.781,129.713 	"/>
	<polygon style="fill:#3D3D3D;" points="151.21,309.286 167.16,293.43 166.316,292.585 150.365,308.441 	"/>
	<polygon style="fill:#3D3D3D;" points="167.447,286.322 195.137,258.926 194.293,258.081 166.603,285.478 	"/>
	<polygon style="fill:#3D3D3D;" points="219.112,250.917 234,236.305 233.106,235.409 218.218,250.021 	"/>
	<polygon style="fill:#3D3D3D;" points="230.529,253.666 245.417,239.055 244.523,238.158 229.635,252.771 	"/>
	<polygon style="fill:#3D3D3D;" points="207.203,160.949 227.396,140.702 226.502,139.807 206.309,160.055 	"/>
	<polygon style="fill:#3D3D3D;" points="242.732,121.417 247.518,116.553 246.624,115.657 241.837,120.522 	"/>
	<polygon style="fill:#3D3D3D;" points="236.089,139.443 240.874,134.579 239.98,133.683 235.193,138.548 	"/>
	<polygon style="fill:#3D3D3D;" points="231.189,156.778 235.974,151.914 235.08,151.019 230.293,155.884 	"/>
	
		<rect x="197.495" y="155.844" transform="matrix(0.7072 -0.7071 0.7071 0.7072 -50.2827 191.5469)" style="fill:#3D3D3D;" width="17.213" height="1.266"/>
	<rect x="110.277" y="181.326" style="fill:#3D3D3D;" width="29.128" height="1.266"/>
	<rect x="227.556" y="122.197" style="fill:#3D3D3D;" width="15.547" height="1.266"/>
	<rect x="154.047" y="124.016" style="fill:#3D3D3D;" width="1.264" height="10.381"/>
	<rect x="139.033" y="124.016" style="fill:#3D3D3D;" width="16.278" height="1.266"/>
	
		<rect x="92.819" y="188.558" transform="matrix(0.7071 -0.7071 0.7071 0.7071 -103.5209 128.4661)" style="fill:#3D3D3D;" width="20.98" height="1.266"/>
	
		<rect x="100.684" y="206.094" transform="matrix(0.7071 -0.7071 0.7071 0.7071 -113.6166 139.164)" style="fill:#3D3D3D;" width="20.98" height="1.265"/>
	<rect x="153.72" y="151.401" style="fill:#3D3D3D;" width="1.266" height="18.111"/>
	
		<rect x="135.85" y="148.934" transform="matrix(0.7068 -0.7074 0.7074 0.7068 -64.1437 144.3752)" style="fill:#3D3D3D;" width="12.489" height="1.265"/>
	
		<rect x="136.56" y="163.971" transform="matrix(0.7068 -0.7074 0.7074 0.7068 -74.573 149.2853)" style="fill:#3D3D3D;" width="12.489" height="1.265"/>
	
		<rect x="92.773" y="167.119" transform="matrix(0.7068 -0.7074 0.7074 0.7068 -89.637 119.2281)" style="fill:#3D3D3D;" width="12.489" height="1.265"/>
	
		<rect x="129.976" y="92.055" transform="matrix(0.7069 -0.7074 0.7074 0.7069 -25.631 123.5283)" style="fill:#3D3D3D;" width="12.489" height="1.266"/>
	
		<rect x="138.367" y="106.149" transform="matrix(0.7068 -0.7074 0.7074 0.7068 -33.1396 133.6056)" style="fill:#3D3D3D;" width="12.488" height="1.265"/>
	
		<rect x="157.666" y="129.101" transform="matrix(0.7068 -0.7074 0.7074 0.7068 -43.7179 153.9804)" style="fill:#3D3D3D;" width="12.489" height="1.265"/>
	
		<rect x="217.757" y="162.8" transform="matrix(0.7069 -0.7073 0.7073 0.7069 -49.9421 206.3501)" style="fill:#3D3D3D;" width="12.489" height="1.266"/>
	
		<rect x="128.303" y="106.257" transform="matrix(0.7068 -0.7074 0.7074 0.7068 -36.1664 126.5167)" style="fill:#3D3D3D;" width="12.488" height="1.265"/>
	
		<rect x="143.228" y="85.812" transform="matrix(0.7068 -0.7074 0.7074 0.7068 -17.3289 131.076)" style="fill:#3D3D3D;" width="12.488" height="1.265"/>
	
		<rect x="236.815" y="186.352" transform="matrix(0.7073 -0.7069 0.7069 0.7073 -66.6502 224.2094)" style="fill:#3D3D3D;" width="1.265" height="12.489"/>
	<polygon style="fill:#3D3D3D;" points="212.267,198.047 217.052,193.182 216.158,192.287 211.371,197.151 	"/>
	<polygon style="fill:#3D3D3D;" points="184.653,202.091 189.439,197.227 188.545,196.331 183.758,201.196 	"/>
	
		<rect x="177.308" y="60.505" transform="matrix(0.7069 -0.7073 0.7073 0.7069 9.6435 145.5461)" style="fill:#3D3D3D;" width="6.244" height="1.265"/>
	
		<rect x="147.249" y="58.909" transform="matrix(0.7068 -0.7074 0.7074 0.7068 1.9651 123.8251)" style="fill:#3D3D3D;" width="6.245" height="1.265"/>
	
		<rect x="166.593" y="89.776" transform="matrix(0.707 -0.7073 0.7073 0.707 -11.2491 153.6668)" style="fill:#3D3D3D;" width="26.442" height="1.266"/>
	
		<rect x="214.735" y="93.319" transform="matrix(0.7078 -0.7065 0.7065 0.7078 -7.4703 181.2734)" style="fill:#3D3D3D;" width="1.265" height="12.694"/>
	
		<rect x="237.352" y="107.543" transform="matrix(0.7078 -0.7065 0.7065 0.7078 -10.909 201.4081)" style="fill:#3D3D3D;" width="1.265" height="12.694"/>
	
		<rect x="201.794" y="59.481" transform="matrix(0.7078 -0.7064 0.7064 0.7078 13.9557 161.5326)" style="fill:#3D3D3D;" width="0.88" height="8.833"/>
	
		<rect x="204.524" y="56.721" transform="matrix(0.7078 -0.7064 0.7064 0.7078 16.7025 162.6545)" style="fill:#3D3D3D;" width="0.88" height="8.833"/>
	
		<rect x="180.52" y="55.767" transform="matrix(0.7075 -0.7067 0.7067 0.7075 6.0017 147.4753)" style="fill:#3D3D3D;" width="1.265" height="21.441"/>
	
		<rect x="174.921" y="43.599" transform="matrix(0.7078 -0.7065 0.7065 0.7078 16.0189 138.6161)" style="fill:#3D3D3D;" width="1.265" height="12.694"/>
	
		<rect x="139.824" y="45.164" transform="matrix(0.7077 -0.7065 0.7065 0.7077 4.6643 114.294)" style="fill:#3D3D3D;" width="1.265" height="12.693"/>
	<rect x="210.436" y="75.358" style="fill:#3D3D3D;" width="1.266" height="20.239"/>
	<rect x="215.059" y="79.882" style="fill:#3D3D3D;" width="1.266" height="20.239"/>
	<rect x="241.837" y="99.093" style="fill:#3D3D3D;" width="1.266" height="23.737"/>
	<rect x="227.556" y="122.217" style="fill:#3D3D3D;" width="1.266" height="8.177"/>
	<rect x="229.616" y="114.449" style="fill:#3D3D3D;" width="1.266" height="8.177"/>
	<rect x="231.767" y="97.923" style="fill:#3D3D3D;" width="1.266" height="8.177"/>
	
		<rect x="196.967" y="136.535" transform="matrix(0.7074 -0.7068 0.7068 0.7074 -35.8254 187.7879)" style="fill:#3D3D3D;" width="23.899" height="1.265"/>
	
		<rect x="210.518" y="107.622" transform="matrix(0.7077 -0.7066 0.7066 0.7077 -13.2112 184.5784)" style="fill:#3D3D3D;" width="11.86" height="1.266"/>
	<rect x="125.858" y="168.247" style="fill:#3D3D3D;" width="29.128" height="1.265"/>
	<rect x="175.856" y="134.141" style="fill:#3D3D3D;" width="1.266" height="79.391"/>
	<rect x="244.151" y="159.692" style="fill:#3D3D3D;" width="1.266" height="79.391"/>
	<rect x="180.633" y="125.634" style="fill:#3D3D3D;" width="1.266" height="38.315"/>
	<rect x="180.941" y="218.069" style="fill:#3D3D3D;" width="1.265" height="41.962"/>
	<polygon style="fill:#3D3D3D;" points="178.189,221.129 172.733,215.695 173.628,214.801 179.084,220.234 	"/>
	<rect x="177.818" y="220.234" style="fill:#3D3D3D;" width="1.266" height="129.766"/>
	<rect x="217.736" y="251.475" style="fill:#3D3D3D;" width="1.266" height="75.653"/>
	<polygon style="fill:#3D3D3D;" points="209.855,252.369 204.399,246.936 205.294,246.043 210.75,251.475 	"/>
	<polygon style="fill:#3D3D3D;" points="202.24,327.057 196.784,321.624 197.679,320.73 203.135,326.162 	"/>
	<polygon style="fill:#3D3D3D;" points="171.725,310.938 166.268,305.505 167.163,304.611 172.619,310.043 	"/>
	<rect x="209.485" y="251.475" style="fill:#3D3D3D;" width="1.265" height="53.071"/>
	<rect x="204.399" y="246.936" style="fill:#3D3D3D;" width="1.266" height="18.464"/>
	<rect x="202.188" y="212.594" style="fill:#3D3D3D;" width="1.265" height="20.241"/>
	<rect x="138.515" y="118.408" style="fill:#3D3D3D;" width="23.128" height="1.265"/>
	<rect x="74.751" y="188.268" style="fill:#3D3D3D;" width="29.128" height="1.266"/>
	<rect x="219.209" y="132.658" style="fill:#3D3D3D;" width="16.914" height="10.487"/>
	<rect x="227.666" y="166.341" style="fill:#3D3D3D;" width="10.332" height="10.487"/>
	<path style="fill:#3D3D3D;" d="M140.608,214.155v8.571h8.445v-8.571H140.608z M146.845,220.485h-4.027v-4.088h4.027V220.485z"/>
	<rect x="100.86" y="198.34" style="fill:#3D3D3D;" width="6.038" height="6.129"/>
	<rect x="187.764" y="104.272" style="fill:#3D3D3D;" width="4.701" height="10.487"/>
	<rect x="231.436" y="128.798" style="fill:#3D3D3D;" width="4.688" height="2.492"/>
	<rect x="225.811" y="128.798" style="fill:#3D3D3D;" width="4.688" height="2.492"/>
	<path style="fill:#3D3D3D;" d="M137.748,221.266c0,2.218-1.798,4.016-4.016,4.016c-2.218,0-4.016-1.798-4.016-4.016
		c0-2.218,1.798-4.016,4.016-4.016C135.95,217.25,137.748,219.048,137.748,221.266z"/>
	<rect x="217.109" y="249.684" style="fill:#3D3D3D;" width="2.379" height="2.379"/>
	<rect x="72.393" y="186.984" style="fill:#3D3D3D;" width="3.832" height="3.832"/>
	<rect x="82.854" y="165.752" style="fill:#3D3D3D;" width="3.832" height="3.832"/>
	<rect x="82.241" y="177.523" style="fill:#3D3D3D;" width="2.529" height="2.529"/>
	<g>
		<rect x="175.71" y="116.065" style="fill:#3D3D3D;" width="5.861" height="1.284"/>
		<rect x="177.999" y="113.776" style="fill:#3D3D3D;" width="1.283" height="5.861"/>
	</g>
	<g>
		<rect x="241.444" y="91.832" style="fill:#3D3D3D;" width="5.861" height="1.284"/>
		<rect x="243.733" y="89.544" style="fill:#3D3D3D;" width="1.283" height="5.861"/>
	</g>
	<g>
		<rect x="152.381" y="204.125" style="fill:#3D3D3D;" width="5.861" height="1.285"/>
		<rect x="154.67" y="201.837" style="fill:#3D3D3D;" width="1.283" height="5.861"/>
	</g>
	<g>
		<rect x="212.552" y="217.049" style="fill:#3D3D3D;" width="3.861" height="0.848"/>
		<rect x="214.06" y="215.542" style="fill:#3D3D3D;" width="0.846" height="3.861"/>
	</g>
	<g>
		<polygon style="fill:#3D3D3D;" points="211.968,258.454 214.354,256.168 216.74,258.454 		"/>
		<rect x="213.561" y="258.19" style="fill:#3D3D3D;" width="1.588" height="6.271"/>
	</g>
	<g>
		<polygon style="fill:#3D3D3D;" points="166.499,171.667 167.577,172.698 168.654,171.667 		"/>
		<rect x="167.218" y="168.956" style="fill:#3D3D3D;" width="0.717" height="2.83"/>
	</g>
	<g>
		<polygon style="fill:#3D3D3D;" points="205.024,112.912 206.102,113.943 207.179,112.912 		"/>
		<rect x="205.743" y="110.201" style="fill:#3D3D3D;" width="0.717" height="2.83"/>
	</g>
	<g>
		<polygon style="fill:#3D3D3D;" points="233.256,118.92 234.333,119.951 235.41,118.92 		"/>
		<rect x="233.975" y="116.209" style="fill:#3D3D3D;" width="0.717" height="2.83"/>
	</g>
	<g>
		<polygon style="fill:#3D3D3D;" points="133.108,138.691 135.063,140.562 137.017,138.691 		"/>
		<rect x="134.412" y="133.773" style="fill:#3D3D3D;" width="1.301" height="5.134"/>
	</g>
	<g>
		<polygon style="fill:#3D3D3D;" points="201.349,286.147 203.734,283.861 206.121,286.147 		"/>
		<rect x="202.941" y="285.883" style="fill:#3D3D3D;" width="1.588" height="6.271"/>
	</g>
	
		<rect x="219.799" y="224.023" transform="matrix(0.7071 -0.7071 0.7071 0.7071 -95.4604 224.4874)" style="fill:#3D3D3D;" width="6.903" height="6.903"/>
	
		<rect x="215.064" y="179.247" transform="matrix(0.7071 -0.7071 0.7071 0.7071 -64.4966 206.3619)" style="fill:#3D3D3D;" width="3.577" height="3.577"/>
	
		<rect x="108.587" y="211.043" transform="matrix(0.7071 -0.7071 0.7071 0.7071 -118.5018 141.1958)" style="fill:#3D3D3D;" width="5.176" height="5.176"/>
	
		<rect x="92.182" y="161.967" transform="matrix(0.7071 -0.7071 0.7071 0.7071 -88.7624 115.6042)" style="fill:#3D3D3D;" width="5.944" height="5.944"/>
	
		<rect x="68.154" y="160.69" transform="matrix(0.7071 -0.7071 0.7071 0.7071 -94.2125 96.5831)" style="fill:#3D3D3D;" width="2.643" height="2.643"/>
	<path style="fill:#3D3D3D;" d="M69.477,156.021l-5.992,5.99l5.992,5.991l5.99-5.991L69.477,156.021z M69.476,165.509l-3.497-3.497
		l3.497-3.498l3.497,3.498L69.476,165.509z"/>
	
		<rect x="242.61" y="126.479" transform="matrix(0.7071 -0.7071 0.7071 0.7071 -19.4461 211.1872)" style="fill:#3D3D3D;" width="5.176" height="5.176"/>
	
		<rect x="235.093" y="88.731" transform="matrix(0.7073 -0.7069 0.7069 0.7073 5.1743 194.3802)" style="fill:#3D3D3D;" width="4.423" height="4.423"/>
	
		<rect x="211.014" y="64.578" transform="matrix(0.7072 -0.707 0.707 0.7072 14.6085 171.7595)" style="fill:#3D3D3D;" width="7.329" height="7.329"/>
	<path style="fill:#3D3D3D;" d="M179.813,38.185l-4.905,4.905l4.905,4.908l4.907-4.908L179.813,38.185z M176.634,43.09l3.18-3.179
		l3.18,3.179l-3.18,3.182L176.634,43.09z"/>
	
		<rect x="210.049" y="102.019" transform="matrix(0.7073 -0.7069 0.7069 0.7073 -11.7075 180.9362)" style="fill:#3D3D3D;" width="5.173" height="5.173"/>
	
		<rect x="138.493" y="83.507" transform="matrix(0.707 -0.7072 0.7072 0.707 -19.5534 124.9892)" style="fill:#3D3D3D;" width="5.176" height="5.176"/>
	<rect x="183.116" y="134.599" style="fill:#3D3D3D;" width="1.933" height="15.345"/>
	<polygon style="fill:#3D3D3D;" points="137.625,133.773 137.625,143.287 147.172,143.287 	"/>
	<rect x="124.56" y="183.833" style="fill:#3D3D3D;" width="12.398" height="3.198"/>
</g>
<g id="Layer_3">
	<path style="fill:#3D3D3D;" d="M138.041,47.027c0,1.068-0.865,1.934-1.933,1.934s-1.933-0.866-1.933-1.934
		c0-1.067,0.865-1.933,1.933-1.933S138.041,45.96,138.041,47.027z"/>
	<path style="fill:#3D3D3D;" d="M143.792,109.998c0,1.395-1.131,2.526-2.527,2.526c-1.395,0-2.526-1.131-2.526-2.526
		c0-1.396,1.131-2.526,2.526-2.526C142.661,107.472,143.792,108.603,143.792,109.998z"/>
	<path style="fill:#3D3D3D;" d="M140.682,102.826c0,1.067-0.865,1.933-1.934,1.933c-1.066,0-1.932-0.866-1.932-1.933
		c0-1.068,0.865-1.933,1.932-1.933C139.816,100.893,140.682,101.758,140.682,102.826z"/>
	<circle style="fill:#3D3D3D;" cx="134.176" cy="74.285" r="1.933"/>
	<path style="fill:#3D3D3D;" d="M162.023,133.499c0,1.068-0.865,1.933-1.933,1.933c-1.067,0-1.934-0.865-1.934-1.933
		c0-1.067,0.866-1.933,1.934-1.933C161.157,131.566,162.023,132.432,162.023,133.499z"/>
	<path style="fill:#3D3D3D;" d="M222.113,167.199c0,1.067-0.865,1.933-1.933,1.933c-1.067,0-1.933-0.865-1.933-1.933
		c0-1.068,0.865-1.934,1.933-1.934C221.248,165.266,222.113,166.131,222.113,167.199z"/>
	<path style="fill:#3D3D3D;" d="M211.81,174.295c0,0.463-0.375,0.838-0.838,0.838c-0.463,0-0.838-0.375-0.838-0.838
		c0-0.463,0.375-0.838,0.838-0.838C211.435,173.457,211.81,173.832,211.81,174.295z"/>
	<path style="fill:#3D3D3D;" d="M215.887,171.047c0,0.463-0.375,0.838-0.838,0.838c-0.463,0-0.838-0.375-0.838-0.838
		c0-0.463,0.375-0.838,0.838-0.838C215.512,170.208,215.887,170.583,215.887,171.047z"/>
	<path style="fill:#3D3D3D;" d="M177.789,78.677c0,1.068-0.864,1.933-1.933,1.933c-1.067,0-1.933-0.865-1.933-1.933
		c0-1.067,0.865-1.933,1.933-1.933C176.925,76.745,177.789,77.61,177.789,78.677z"/>
	<path style="fill:#3D3D3D;" d="M190.314,99.666c0,1.067-0.865,1.933-1.933,1.933c-1.067,0-1.933-0.866-1.933-1.933
		c0-1.067,0.865-1.933,1.933-1.933C189.449,97.733,190.314,98.599,190.314,99.666z"/>
	<path style="fill:#3D3D3D;" d="M208.729,119.041c0,1.068-0.866,1.933-1.933,1.933c-1.067,0-1.934-0.865-1.934-1.933
		c0-1.067,0.866-1.933,1.934-1.933C207.862,117.109,208.729,117.974,208.729,119.041z"/>
	<path style="fill:#3D3D3D;" d="M228.593,93.172c0,0.773-0.627,1.399-1.398,1.399c-0.773,0-1.4-0.626-1.4-1.399
		c0-0.773,0.627-1.399,1.4-1.399C227.966,91.773,228.593,92.399,228.593,93.172z"/>
	<path style="fill:#3D3D3D;" d="M231.494,89.544c0,0.773-0.627,1.399-1.399,1.399c-0.772,0-1.399-0.626-1.399-1.399
		c0-0.773,0.627-1.399,1.399-1.399C230.867,88.145,231.494,88.771,231.494,89.544z"/>
	<path style="fill:#3D3D3D;" d="M234.395,85.915c0,0.773-0.627,1.399-1.399,1.399c-0.772,0-1.399-0.626-1.399-1.399
		c0-0.772,0.627-1.399,1.399-1.399C233.769,84.516,234.395,85.142,234.395,85.915z"/>
	<path style="fill:#3D3D3D;" d="M175.475,111.754c0,0.688-0.558,1.245-1.245,1.245c-0.688,0-1.246-0.557-1.246-1.245
		c0-0.688,0.557-1.245,1.246-1.245C174.917,110.509,175.475,111.066,175.475,111.754z"/>
	<path style="fill:#3D3D3D;" d="M215.55,147.153c0,1.067-0.865,1.933-1.933,1.933c-1.068,0-1.934-0.865-1.934-1.933
		c0-1.068,0.865-1.934,1.934-1.934C214.685,145.22,215.55,146.085,215.55,147.153z"/>
	<path style="fill:#3D3D3D;" d="M208.729,151.019c0,1.067-0.866,1.932-1.933,1.932c-1.067,0-1.934-0.865-1.934-1.932
		c0-1.068,0.866-1.933,1.934-1.933C207.862,149.086,208.729,149.951,208.729,151.019z"/>
	<path style="fill:#3D3D3D;" d="M205.668,202.533c0,1.068-0.865,1.933-1.934,1.933c-1.067,0-1.932-0.864-1.932-1.933
		c0-1.066,0.864-1.933,1.932-1.933C204.803,200.601,205.668,201.467,205.668,202.533z"/>
	<path style="fill:#3D3D3D;" d="M202.051,193.776c0,1.067-0.865,1.933-1.932,1.933c-1.068,0-1.934-0.865-1.934-1.933
		s0.865-1.933,1.934-1.933C201.186,191.844,202.051,192.709,202.051,193.776z"/>
	<path style="fill:#3D3D3D;" d="M181.895,173.653c0,1.067-0.866,1.933-1.933,1.933c-1.068,0-1.933-0.865-1.933-1.933
		c0-1.068,0.864-1.934,1.933-1.934C181.029,171.72,181.895,172.585,181.895,173.653z"/>
	<path style="fill:#3D3D3D;" d="M188.914,127.801c0,1.067-0.866,1.933-1.934,1.933c-1.066,0-1.932-0.865-1.932-1.933
		s0.865-1.933,1.932-1.933C188.048,125.868,188.914,126.734,188.914,127.801z"/>
	<path style="fill:#3D3D3D;" d="M219.416,207.217c0,1.066-0.866,1.934-1.934,1.934c-1.067,0-1.933-0.867-1.933-1.934
		c0-1.067,0.865-1.933,1.933-1.933C218.55,205.284,219.416,206.149,219.416,207.217z"/>
	<path style="fill:#3D3D3D;" d="M229.694,211.254c0,1.066-0.866,1.934-1.933,1.934c-1.068,0-1.934-0.867-1.934-1.934
		c0-1.067,0.865-1.932,1.934-1.932C228.828,209.322,229.694,210.186,229.694,211.254z"/>
	<path style="fill:#3D3D3D;" d="M236.964,234.963c0,1.636-1.328,2.965-2.964,2.965c-1.638,0-2.964-1.329-2.964-2.965
		c0-1.636,1.326-2.961,2.964-2.961C235.636,232.002,236.964,233.327,236.964,234.963z"/>
	<path style="fill:#3D3D3D;" d="M239.277,184.189c0,1.066-0.866,1.933-1.934,1.933c-1.067,0-1.933-0.866-1.933-1.933
		c0-1.068,0.865-1.934,1.933-1.934C238.411,182.256,239.277,183.121,239.277,184.189z"/>
	<path style="fill:#3D3D3D;" d="M223.34,171.425c0,1.066-0.866,1.933-1.934,1.933c-1.067,0-1.933-0.866-1.933-1.933
		c0-1.068,0.865-1.934,1.933-1.934C222.474,169.492,223.34,170.357,223.34,171.425z"/>
	<path style="fill:#3D3D3D;" d="M235.039,188.198c0,1.067-0.865,1.933-1.933,1.933c-1.067,0-1.933-0.865-1.933-1.933
		c0-1.067,0.865-1.933,1.933-1.933C234.174,186.266,235.039,187.131,235.039,188.198z"/>
	<path style="fill:#3D3D3D;" d="M242.786,195.844c0,1.137-0.921,2.057-2.058,2.057s-2.058-0.92-2.058-2.057
		c0-1.137,0.921-2.059,2.058-2.059S242.786,194.707,242.786,195.844z"/>
	<circle style="fill:#3D3D3D;" cx="225.08" cy="187.732" r="1.495"/>
	<path style="fill:#3D3D3D;" d="M218.526,161.602c0,1.066-0.866,1.933-1.934,1.933s-1.933-0.866-1.933-1.933
		c0-1.068,0.865-1.933,1.933-1.933S218.526,160.534,218.526,161.602z"/>
	<path style="fill:#3D3D3D;" d="M197.116,169.492c0,1.066-0.866,1.933-1.934,1.933s-1.933-0.866-1.933-1.933
		c0-1.068,0.865-1.933,1.933-1.933S197.116,168.424,197.116,169.492z"/>
	<path style="fill:#3D3D3D;" d="M180.464,104.05c0,1.067-0.866,1.933-1.933,1.933c-1.068,0-1.934-0.866-1.934-1.933
		c0-1.068,0.865-1.932,1.934-1.932C179.598,102.118,180.464,102.982,180.464,104.05z"/>
	<path style="fill:#3D3D3D;" d="M160.18,101.371c0,1.826-1.482,3.309-3.307,3.309c-1.828,0-3.309-1.482-3.309-3.309
		c0-1.827,1.48-3.306,3.309-3.306C158.698,98.065,160.18,99.544,160.18,101.371z"/>
	<path style="fill:#3D3D3D;" d="M192.134,92.152c0,1.067-0.866,1.933-1.933,1.933c-1.067,0-1.934-0.866-1.934-1.933
		c0-1.067,0.866-1.933,1.934-1.933C191.268,90.22,192.134,91.085,192.134,92.152z"/>
	<path style="fill:#3D3D3D;" d="M248.894,116.147c0,1.066-0.866,1.933-1.934,1.933c-1.067,0-1.933-0.866-1.933-1.933
		c0-1.068,0.865-1.933,1.933-1.933C248.027,114.215,248.894,115.079,248.894,116.147z"/>
	<path style="fill:#3D3D3D;" d="M244.403,99.56c0,1.066-0.866,1.933-1.934,1.933s-1.933-0.866-1.933-1.933
		c0-1.068,0.865-1.933,1.933-1.933S244.403,98.491,244.403,99.56z"/>
	<path style="fill:#3D3D3D;" d="M242.25,134.173c0,1.066-0.866,1.933-1.934,1.933c-1.067,0-1.933-0.867-1.933-1.933
		c0-1.068,0.865-1.933,1.933-1.933C241.384,132.241,242.25,133.105,242.25,134.173z"/>
	<path style="fill:#3D3D3D;" d="M247.96,145.244c0,1.376-1.118,2.495-2.496,2.495c-1.378,0-2.495-1.119-2.495-2.495
		c0-1.379,1.117-2.495,2.495-2.495C246.842,142.749,247.96,143.864,247.96,145.244z"/>
	<path style="fill:#3D3D3D;" d="M248.836,156.974c0,2.29-1.86,4.151-4.152,4.151c-2.293,0-4.151-1.861-4.151-4.151
		c0-2.295,1.858-4.15,4.151-4.15C246.976,152.824,248.836,154.679,248.836,156.974z"/>
	<path style="fill:#3D3D3D;" d="M237.999,151.019c0,1.214-0.986,2.201-2.202,2.201c-1.216,0-2.201-0.987-2.201-2.201
		c0-1.217,0.985-2.201,2.201-2.201C237.013,148.818,237.999,149.802,237.999,151.019z"/>
	<path style="fill:#3D3D3D;" d="M217.002,247.951c0,1.066-0.866,1.933-1.934,1.933c-1.067,0-1.933-0.866-1.933-1.933
		c0-1.068,0.865-1.933,1.933-1.933C216.136,246.019,217.002,246.883,217.002,247.951z"/>
	<path style="fill:#3D3D3D;" d="M183.051,212.477c0.064,1.066-0.748,1.98-1.813,2.044c-1.065,0.065-1.981-0.747-2.045-1.813
		c-0.063-1.066,0.748-1.982,1.814-2.045C182.071,210.6,182.987,211.411,183.051,212.477z"/>
	<path style="fill:#3D3D3D;" d="M183.504,259.914c0.063,1.066-0.749,1.981-1.814,2.045c-1.066,0.065-1.982-0.747-2.045-1.813
		c-0.064-1.066,0.748-1.982,1.813-2.045C182.523,258.037,183.439,258.849,183.504,259.914z"/>
	<path style="fill:#3D3D3D;" d="M175.273,215.448c0.063,1.066-0.749,1.982-1.815,2.045c-1.065,0.063-1.981-0.747-2.045-1.813
		c-0.064-1.064,0.747-1.98,1.813-2.045C174.292,213.57,175.208,214.383,175.273,215.448z"/>
	<path style="fill:#3D3D3D;" d="M175.499,250.667c0.064,1.064-0.748,1.979-1.813,2.044c-1.065,0.063-1.981-0.748-2.045-1.813
		c-0.064-1.065,0.748-1.981,1.813-2.045C174.519,248.789,175.435,249.602,175.499,250.667z"/>
	<path style="fill:#3D3D3D;" d="M173.878,294.758c0.064,1.065-0.748,1.98-1.813,2.045c-1.066,0.064-1.982-0.748-2.045-1.813
		c-0.064-1.066,0.748-1.982,1.813-2.046C172.898,292.88,173.814,293.693,173.878,294.758z"/>
	<path style="fill:#3D3D3D;" d="M175.499,224.086c0.064,1.064-0.748,1.98-1.813,2.045c-1.065,0.063-1.981-0.748-2.045-1.814
		c-0.064-1.065,0.748-1.981,1.813-2.046C174.519,222.208,175.435,223.02,175.499,224.086z"/>
	<path style="fill:#3D3D3D;" d="M133.499,197.526c0.064,1.065-0.748,1.981-1.813,2.046c-1.065,0.063-1.981-0.748-2.045-1.814
		c-0.064-1.065,0.748-1.981,1.813-2.045C132.519,195.648,133.435,196.461,133.499,197.526z"/>
	<path style="fill:#3D3D3D;" d="M120.968,198.746c0.064,1.065-0.748,1.98-1.814,2.045c-1.065,0.064-1.981-0.748-2.045-1.814
		c-0.063-1.065,0.748-1.981,1.813-2.046C119.987,196.868,120.903,197.68,120.968,198.746z"/>
	<path style="fill:#3D3D3D;" d="M148.801,196.57c0.064,1.065-0.748,1.982-1.814,2.045c-1.065,0.064-1.981-0.748-2.045-1.813
		c-0.064-1.066,0.748-1.982,1.813-2.045C147.821,194.693,148.736,195.505,148.801,196.57z"/>
	<path style="fill:#3D3D3D;" d="M208.034,145.22c0,1.068-0.865,1.934-1.933,1.934c-1.067,0-1.933-0.866-1.933-1.934
		c0-1.067,0.865-1.933,1.933-1.933C207.169,143.287,208.034,144.152,208.034,145.22z"/>
	<path style="fill:#3D3D3D;" d="M213.002,75.358c0,1.067-0.865,1.933-1.932,1.933c-1.068,0-1.934-0.866-1.934-1.933
		c0-1.067,0.865-1.933,1.934-1.933C212.137,73.425,213.002,74.29,213.002,75.358z"/>
	<path style="fill:#3D3D3D;" d="M175.247,267.607c0,1.067-0.865,1.933-1.933,1.933c-1.068,0-1.934-0.865-1.934-1.933
		c0-1.067,0.865-1.934,1.934-1.934C174.382,265.674,175.247,266.54,175.247,267.607z"/>
	<path style="fill:#3D3D3D;" d="M156.285,151.401c0,1.067-0.865,1.933-1.933,1.933c-1.068,0-1.934-0.866-1.934-1.933
		c0-1.068,0.866-1.933,1.934-1.933C155.42,149.468,156.285,150.333,156.285,151.401z"/>
	<path style="fill:#3D3D3D;" d="M97.858,196.792c0,1.067-0.865,1.933-1.934,1.933c-1.067,0-1.933-0.865-1.933-1.933
		c0-1.067,0.866-1.933,1.933-1.933C96.993,194.859,97.858,195.725,97.858,196.792z"/>
	<path style="fill:#3D3D3D;" d="M102.183,179.824c0,1.067-0.866,1.934-1.933,1.934s-1.933-0.866-1.933-1.934
		c0-1.066,0.865-1.933,1.933-1.933S102.183,178.758,102.183,179.824z"/>
	<path style="fill:#3D3D3D;" d="M152.044,173.518c0,1.067-0.866,1.933-1.933,1.933c-1.068,0-1.934-0.866-1.934-1.933
		c0-1.067,0.865-1.933,1.934-1.933C151.178,171.585,152.044,172.45,152.044,173.518z"/>
	<path style="fill:#3D3D3D;" d="M149.198,190.935c0,1.066-0.866,1.933-1.933,1.933c-1.068,0-1.933-0.866-1.933-1.933
		c0-1.067,0.865-1.934,1.933-1.934C148.332,189.001,149.198,189.867,149.198,190.935z"/>
	<path style="fill:#3D3D3D;" d="M148.888,160.456c0,1.067-0.865,1.934-1.933,1.934c-1.067,0-1.933-0.866-1.933-1.934
		c0-1.067,0.865-1.933,1.933-1.933C148.023,158.523,148.888,159.389,148.888,160.456z"/>
	<path style="fill:#3D3D3D;" d="M126.493,190.037c0,1.066-0.866,1.933-1.933,1.933c-1.068,0-1.933-0.866-1.933-1.933
		c0-1.068,0.865-1.934,1.933-1.934C125.627,188.104,126.493,188.969,126.493,190.037z"/>
	<path style="fill:#3D3D3D;" d="M129.744,212.503c0,1.066-0.866,1.933-1.933,1.933c-1.067,0-1.933-0.866-1.933-1.933
		c0-1.067,0.865-1.934,1.933-1.934C128.878,210.569,129.744,211.436,129.744,212.503z"/>
	<path style="fill:#3D3D3D;" d="M150.821,139.89c0,1.067-0.866,1.933-1.933,1.933c-1.068,0-1.933-0.866-1.933-1.933
		c0-1.068,0.865-1.933,1.933-1.933C149.955,137.957,150.821,138.822,150.821,139.89z"/>
	<path style="fill:#3D3D3D;" d="M129.456,162.857c0,0.446-0.361,0.808-0.808,0.808c-0.446,0-0.808-0.362-0.808-0.808
		c0-0.446,0.361-0.808,0.808-0.808C129.095,162.049,129.456,162.411,129.456,162.857z"/>
	<path style="fill:#3D3D3D;" d="M147.597,135.311c0,1.067-0.866,1.933-1.933,1.933c-1.068,0-1.933-0.866-1.933-1.933
		c0-1.067,0.865-1.933,1.933-1.933C146.731,133.378,147.597,134.243,147.597,135.311z"/>
	<path style="fill:#3D3D3D;" d="M134.894,130.012c0,1.067-0.865,1.933-1.933,1.933c-1.068,0-1.933-0.866-1.933-1.933
		c0-1.067,0.865-1.933,1.933-1.933C134.028,128.079,134.894,128.945,134.894,130.012z"/>
	<path style="fill:#3D3D3D;" d="M148.519,211.471c-1.374,0-2.492-1.117-2.492-2.49c0-1.374,1.118-2.492,2.492-2.492
		c1.374,0,2.492,1.118,2.492,2.492C151.01,210.354,149.893,211.471,148.519,211.471z M148.519,207.606
		c-0.757,0-1.374,0.615-1.374,1.374c0,0.756,0.616,1.373,1.374,1.373c0.758,0,1.374-0.617,1.374-1.373
		C149.893,208.222,149.276,207.606,148.519,207.606z"/>
	<path style="fill:#3D3D3D;" d="M156.076,197.773c-1.374,0-2.492-1.118-2.492-2.491c0-1.373,1.118-2.492,2.492-2.492
		c1.374,0,2.491,1.119,2.491,2.492C158.567,196.654,157.45,197.773,156.076,197.773z M156.076,193.908
		c-0.758,0-1.374,0.615-1.374,1.373c0,0.757,0.616,1.373,1.374,1.373c0.757,0,1.374-0.616,1.374-1.373
		C157.45,194.523,156.833,193.908,156.076,193.908z"/>
	<path style="fill:#3D3D3D;" d="M135.671,215.568c-1.374,0-2.492-1.117-2.492-2.49c0-1.374,1.118-2.492,2.492-2.492
		c1.374,0,2.491,1.118,2.491,2.492C138.162,214.451,137.044,215.568,135.671,215.568z M135.671,211.704
		c-0.758,0-1.374,0.615-1.374,1.374c0,0.756,0.616,1.373,1.374,1.373c0.757,0,1.374-0.617,1.374-1.373
		C137.044,212.319,136.428,211.704,135.671,211.704z"/>
	<path style="fill:#3D3D3D;" d="M137.189,238.632c-1.375,0-2.493-1.118-2.493-2.491c0-1.373,1.118-2.492,2.493-2.492
		c1.373,0,2.491,1.119,2.491,2.492C139.681,237.514,138.563,238.632,137.189,238.632z M137.189,234.768
		c-0.758,0-1.375,0.615-1.375,1.373c0,0.757,0.617,1.373,1.375,1.373c0.757,0,1.373-0.616,1.373-1.373
		C138.563,235.383,137.946,234.768,137.189,234.768z"/>
	<path style="fill:#3D3D3D;" d="M109.324,195.917c-1.374,0-2.492-1.118-2.492-2.491c0-1.373,1.118-2.492,2.492-2.492
		c1.374,0,2.491,1.119,2.491,2.492C111.815,194.799,110.698,195.917,109.324,195.917z M109.324,192.053
		c-0.758,0-1.374,0.615-1.374,1.373c0,0.757,0.616,1.373,1.374,1.373c0.757,0,1.374-0.616,1.374-1.373
		C110.698,192.668,110.081,192.053,109.324,192.053z"/>
	<path style="fill:#3D3D3D;" d="M94.63,179.98c-1.374,0-2.492-1.119-2.492-2.492c0-1.373,1.118-2.491,2.492-2.491
		s2.491,1.118,2.491,2.491C97.121,178.861,96.004,179.98,94.63,179.98z M94.63,176.115c-0.758,0-1.374,0.615-1.374,1.373
		s0.616,1.373,1.374,1.373c0.758,0,1.374-0.615,1.374-1.373S95.388,176.115,94.63,176.115z"/>
	<path style="fill:#3D3D3D;" d="M134.825,147.827c-1.375,0-2.493-1.118-2.493-2.491c0-1.374,1.118-2.492,2.493-2.492
		c1.373,0,2.492,1.118,2.492,2.492C137.316,146.709,136.198,147.827,134.825,147.827z M134.825,143.962
		c-0.758,0-1.374,0.616-1.374,1.374c0,0.756,0.616,1.373,1.374,1.373c0.757,0,1.373-0.617,1.373-1.373
		C136.198,144.578,135.582,143.962,134.825,143.962z"/>
	<path style="fill:#3D3D3D;" d="M71.968,173.23c-1.374,0-2.492-1.118-2.492-2.491c0-1.374,1.118-2.492,2.492-2.492
		c1.373,0,2.491,1.118,2.491,2.492C74.459,172.111,73.341,173.23,71.968,173.23z M71.968,169.365c-0.758,0-1.374,0.615-1.374,1.374
		c0,0.756,0.616,1.372,1.374,1.372c0.757,0,1.373-0.616,1.373-1.372C73.341,169.98,72.725,169.365,71.968,169.365z"/>
	<path style="fill:#3D3D3D;" d="M58.729,165.199c-1.375,0-2.492-1.118-2.492-2.491c0-1.374,1.118-2.492,2.492-2.492
		c1.374,0,2.492,1.118,2.492,2.492C61.221,164.081,60.103,165.199,58.729,165.199z M58.729,161.334
		c-0.758,0-1.374,0.616-1.374,1.374c0,0.756,0.616,1.373,1.374,1.373c0.757,0,1.374-0.616,1.374-1.373
		C60.103,161.95,59.486,161.334,58.729,161.334z"/>
	<path style="fill:#3D3D3D;" d="M79.484,158.319c-1.374,0-2.491-1.118-2.491-2.492c0-1.374,1.117-2.493,2.491-2.493
		s2.492,1.118,2.492,2.493C81.977,157.201,80.858,158.319,79.484,158.319z M79.484,154.453c-0.757,0-1.374,0.616-1.374,1.374
		c0,0.757,0.617,1.374,1.374,1.374c0.758,0,1.374-0.617,1.374-1.374C80.858,155.069,80.242,154.453,79.484,154.453z"/>
	<path style="fill:#3D3D3D;" d="M229.441,160.13c-1.374,0-2.492-1.118-2.492-2.491c0-1.374,1.118-2.493,2.492-2.493
		c1.374,0,2.491,1.118,2.491,2.493C231.933,159.012,230.815,160.13,229.441,160.13z M229.441,156.264
		c-0.758,0-1.374,0.617-1.374,1.374c0,0.757,0.616,1.373,1.374,1.373c0.758,0,1.374-0.616,1.374-1.373
		C230.815,156.881,230.199,156.264,229.441,156.264z"/>
	<path style="fill:#3D3D3D;" d="M176.84,72.118c-1.375,0-2.493-1.118-2.493-2.492s1.118-2.492,2.493-2.492
		c1.373,0,2.491,1.118,2.491,2.492S178.213,72.118,176.84,72.118z M176.84,68.252c-0.758,0-1.375,0.617-1.375,1.374
		c0,0.758,0.617,1.374,1.375,1.374c0.757,0,1.373-0.616,1.373-1.374C178.213,68.869,177.597,68.252,176.84,68.252z"/>
	<path style="fill:#3D3D3D;" d="M156.872,69.136c-1.374,0-2.492-1.118-2.492-2.492c0-1.373,1.118-2.492,2.492-2.492
		c1.374,0,2.492,1.118,2.492,2.492C159.364,68.018,158.246,69.136,156.872,69.136z M156.872,65.271
		c-0.758,0-1.374,0.616-1.374,1.373c0,0.758,0.616,1.374,1.374,1.374c0.757,0,1.374-0.616,1.374-1.374
		C158.246,65.887,157.629,65.271,156.872,65.271z"/>
	<path style="fill:#3D3D3D;" d="M148.351,52.011c-1.375,0-2.492-1.117-2.492-2.491c0-1.374,1.117-2.492,2.492-2.492
		c1.373,0,2.492,1.118,2.492,2.492C150.842,50.894,149.724,52.011,148.351,52.011z M148.351,48.146
		c-0.758,0-1.374,0.616-1.374,1.374s0.616,1.374,1.374,1.374c0.757,0,1.373-0.616,1.373-1.374S149.108,48.146,148.351,48.146z"/>
	<path style="fill:#3D3D3D;" d="M170.02,46.574c-1.374,0-2.492-1.117-2.492-2.491c0-1.374,1.118-2.491,2.492-2.491
		c1.374,0,2.492,1.117,2.492,2.491C172.512,45.458,171.394,46.574,170.02,46.574z M170.02,42.709c-0.757,0-1.374,0.617-1.374,1.374
		c0,0.758,0.617,1.374,1.374,1.374c0.758,0,1.374-0.616,1.374-1.374C171.394,43.326,170.777,42.709,170.02,42.709z"/>
	<path style="fill:#3D3D3D;" d="M143.991,94.587c-1.374,0-2.492-1.118-2.492-2.492c0-1.373,1.118-2.492,2.492-2.492
		c1.373,0,2.491,1.118,2.491,2.492C146.482,93.47,145.364,94.587,143.991,94.587z M143.991,90.722c-0.759,0-1.374,0.616-1.374,1.373
		c0,0.758,0.616,1.374,1.374,1.374c0.757,0,1.373-0.616,1.373-1.374C145.364,91.338,144.748,90.722,143.991,90.722z"/>
	<path style="fill:#3D3D3D;" d="M134.176,58.744c-1.374,0-2.492-1.118-2.492-2.492c0-1.374,1.118-2.492,2.492-2.492
		c1.374,0,2.492,1.118,2.492,2.492C136.667,57.626,135.55,58.744,134.176,58.744z M134.176,54.878c-0.758,0-1.374,0.616-1.374,1.374
		c0,0.758,0.616,1.374,1.374,1.374s1.374-0.616,1.374-1.374C135.55,55.494,134.934,54.878,134.176,54.878z"/>
	<path style="fill:#3D3D3D;" d="M161.245,143.145c-1.374,0-2.492-1.118-2.492-2.492c0-1.374,1.117-2.492,2.492-2.492
		c1.374,0,2.492,1.118,2.492,2.492C163.736,142.027,162.619,143.145,161.245,143.145z M161.245,139.28
		c-0.757,0-1.374,0.616-1.374,1.374c0,0.758,0.617,1.374,1.374,1.374c0.757,0,1.374-0.616,1.374-1.374
		C162.618,139.895,162.001,139.28,161.245,139.28z"/>
	<path style="fill:#3D3D3D;" d="M136.542,157.768c-1.374,0-2.492-1.118-2.492-2.492c0-1.374,1.118-2.492,2.492-2.492
		c1.374,0,2.491,1.118,2.491,2.492C139.033,156.649,137.916,157.768,136.542,157.768z M136.542,153.902
		c-0.758,0-1.374,0.616-1.374,1.374c0,0.757,0.616,1.374,1.374,1.374c0.757,0,1.374-0.616,1.374-1.374
		C137.916,154.519,137.299,153.902,136.542,153.902z"/>
	<path style="fill:#3D3D3D;" d="M124.263,171.372c-1.374,0-2.492-1.118-2.492-2.492c0-1.374,1.118-2.492,2.492-2.492
		s2.491,1.118,2.491,2.492C126.754,170.253,125.637,171.372,124.263,171.372z M124.263,167.506c-0.758,0-1.374,0.616-1.374,1.373
		c0,0.758,0.616,1.374,1.374,1.374c0.757,0,1.374-0.616,1.374-1.374C125.637,168.122,125.02,167.506,124.263,167.506z"/>
	<path style="fill:#3D3D3D;" d="M161.195,164.69c-1.374,0-2.492-1.118-2.492-2.492c0-1.374,1.118-2.492,2.492-2.492
		c1.374,0,2.492,1.118,2.492,2.492C163.687,163.572,162.569,164.69,161.195,164.69z M161.195,160.825
		c-0.757,0-1.374,0.616-1.374,1.373c0,0.757,0.616,1.374,1.374,1.374c0.757,0,1.374-0.616,1.374-1.374
		C162.569,161.441,161.953,160.825,161.195,160.825z"/>
	<path style="fill:#3D3D3D;" d="M170.235,139.99c-1.374,0-2.492-1.117-2.492-2.492c0-1.374,1.118-2.492,2.492-2.492
		c1.374,0,2.492,1.118,2.492,2.492C172.727,138.873,171.609,139.99,170.235,139.99z M170.235,136.125
		c-0.758,0-1.374,0.616-1.374,1.374c0,0.757,0.616,1.374,1.374,1.374c0.757,0,1.374-0.616,1.374-1.374
		C171.609,136.741,170.993,136.125,170.235,136.125z"/>
	<path style="fill:#3D3D3D;" d="M181.266,168.244c-1.373,0-2.492-1.118-2.492-2.492c0-1.374,1.119-2.492,2.492-2.492
		c1.374,0,2.492,1.118,2.492,2.492C183.758,167.126,182.64,168.244,181.266,168.244z M181.266,164.378
		c-0.758,0-1.373,0.616-1.373,1.374c0,0.758,0.615,1.374,1.373,1.374c0.758,0,1.374-0.616,1.374-1.374
		C182.64,164.994,182.023,164.378,181.266,164.378z"/>
	<path style="fill:#3D3D3D;" d="M159.05,115.632c-1.374,0-2.492-1.117-2.492-2.491c0-1.374,1.118-2.492,2.492-2.492
		c1.374,0,2.492,1.118,2.492,2.492C161.542,114.515,160.424,115.632,159.05,115.632z M159.05,111.767
		c-0.758,0-1.374,0.616-1.374,1.374s0.616,1.374,1.374,1.374c0.757,0,1.374-0.616,1.374-1.374S159.807,111.767,159.05,111.767z"/>
	<path style="fill:#3D3D3D;" d="M137.233,127.14c-1.374,0-2.492-1.117-2.492-2.491c0-1.374,1.118-2.492,2.492-2.492
		c1.374,0,2.492,1.118,2.492,2.492C139.725,126.023,138.607,127.14,137.233,127.14z M137.233,123.275
		c-0.758,0-1.374,0.616-1.374,1.373c0,0.757,0.616,1.374,1.374,1.374c0.757,0,1.374-0.617,1.374-1.374
		C138.607,123.891,137.991,123.275,137.233,123.275z"/>
	<path style="fill:#3D3D3D;" d="M181.133,112.482c-1.375,0-2.492-1.118-2.492-2.492c0-1.374,1.117-2.492,2.492-2.492
		c1.374,0,2.491,1.118,2.491,2.492C183.624,111.364,182.507,112.482,181.133,112.482z M181.133,108.616
		c-0.758,0-1.374,0.617-1.374,1.374c0,0.758,0.616,1.374,1.374,1.374c0.757,0,1.373-0.616,1.373-1.374
		C182.506,109.233,181.89,108.616,181.133,108.616z"/>
	<path style="fill:#3D3D3D;" d="M232.399,110.64c-1.373,0-2.492-1.118-2.492-2.492c0-1.374,1.119-2.491,2.492-2.491
		c1.374,0,2.492,1.117,2.492,2.491C234.892,109.521,233.773,110.64,232.399,110.64z M232.399,106.773
		c-0.758,0-1.373,0.617-1.373,1.374c0,0.758,0.615,1.374,1.373,1.374s1.374-0.616,1.374-1.374
		C233.773,107.391,233.157,106.773,232.399,106.773z"/>
	<path style="fill:#3D3D3D;" d="M232.399,98.806c-1.373,0-2.492-1.118-2.492-2.492c0-1.375,1.119-2.492,2.492-2.492
		c1.374,0,2.492,1.117,2.492,2.492C234.892,97.688,233.773,98.806,232.399,98.806z M232.399,94.94c-0.758,0-1.373,0.617-1.373,1.375
		c0,0.757,0.615,1.374,1.373,1.374s1.374-0.616,1.374-1.374C233.773,95.557,233.157,94.94,232.399,94.94z"/>
	<path style="fill:#3D3D3D;" d="M183.804,60.182c-1.373,0-2.491-1.118-2.491-2.492c0-1.374,1.118-2.492,2.491-2.492
		c1.374,0,2.493,1.118,2.493,2.492C186.297,59.064,185.178,60.182,183.804,60.182z M183.804,56.317
		c-0.757,0-1.373,0.616-1.373,1.374c0,0.757,0.616,1.374,1.373,1.374c0.758,0,1.374-0.617,1.374-1.374
		C185.178,56.933,184.561,56.317,183.804,56.317z"/>
	<path style="fill:#3D3D3D;" d="M153.745,58.586c-1.374,0-2.492-1.117-2.492-2.492c0-1.374,1.118-2.492,2.492-2.492
		c1.374,0,2.493,1.118,2.493,2.492C156.238,57.469,155.12,58.586,153.745,58.586z M153.745,54.721c-0.757,0-1.374,0.616-1.374,1.374
		c0,0.757,0.617,1.374,1.374,1.374c0.758,0,1.374-0.616,1.374-1.374C155.12,55.337,154.503,54.721,153.745,54.721z"/>
	<path style="fill:#3D3D3D;" d="M224.27,207.754c-1.373,0-2.491-1.117-2.491-2.491c0-1.375,1.118-2.492,2.491-2.492
		c1.375,0,2.492,1.117,2.492,2.492C226.762,206.637,225.645,207.754,224.27,207.754z M224.27,203.888
		c-0.757,0-1.373,0.616-1.373,1.375c0,0.757,0.616,1.373,1.373,1.373c0.758,0,1.374-0.616,1.374-1.373
		C225.644,204.504,225.027,203.888,224.27,203.888z"/>
	<path style="fill:#3D3D3D;" d="M223.094,240.943c-1.374,0-2.492-1.117-2.492-2.491c0-1.374,1.118-2.492,2.492-2.492
		c1.374,0,2.492,1.118,2.492,2.492C225.586,239.826,224.468,240.943,223.094,240.943z M223.094,237.078
		c-0.758,0-1.374,0.615-1.374,1.374c0,0.757,0.616,1.373,1.374,1.373c0.757,0,1.373-0.616,1.373-1.373
		C224.467,237.693,223.851,237.078,223.094,237.078z"/>
	<path style="fill:#3D3D3D;" d="M228.63,257.207c-1.374,0-2.492-1.116-2.492-2.49s1.118-2.492,2.492-2.492
		c1.374,0,2.492,1.118,2.492,2.492S230.004,257.207,228.63,257.207z M228.63,253.343c-0.758,0-1.374,0.615-1.374,1.374
		c0,0.757,0.616,1.373,1.374,1.373c0.757,0,1.373-0.616,1.373-1.373C230.003,253.958,229.387,253.343,228.63,253.343z"/>
	<path style="fill:#3D3D3D;" d="M218.369,331.351c-1.374,0-2.492-1.117-2.492-2.491s1.118-2.492,2.492-2.492
		c1.374,0,2.492,1.118,2.492,2.492S219.743,331.351,218.369,331.351z M218.369,327.485c-0.758,0-1.374,0.615-1.374,1.374
		c0,0.757,0.616,1.373,1.374,1.373c0.757,0,1.373-0.616,1.373-1.373C219.742,328.101,219.126,327.485,218.369,327.485z"/>
	<path style="fill:#3D3D3D;" d="M217.894,193.77c-1.373,0-2.491-1.117-2.491-2.491c0-1.375,1.118-2.492,2.491-2.492
		c1.374,0,2.493,1.117,2.493,2.492C220.387,192.652,219.268,193.77,217.894,193.77z M217.894,189.903
		c-0.757,0-1.373,0.616-1.373,1.375c0,0.757,0.616,1.373,1.373,1.373c0.758,0,1.374-0.616,1.374-1.373
		C219.268,190.52,218.651,189.903,217.894,189.903z"/>
	<path style="fill:#3D3D3D;" d="M190.28,197.814c-1.373,0-2.491-1.118-2.491-2.492c0-1.374,1.118-2.492,2.491-2.492
		c1.374,0,2.493,1.118,2.493,2.492C192.773,196.696,191.654,197.814,190.28,197.814z M190.28,193.948
		c-0.757,0-1.373,0.616-1.373,1.374s0.616,1.373,1.373,1.373c0.758,0,1.374-0.615,1.374-1.373S191.038,193.948,190.28,193.948z"/>
	<path style="fill:#3D3D3D;" d="M201.74,131.504c-1.373,0-2.491-1.118-2.491-2.492c0-1.374,1.118-2.492,2.491-2.492
		c1.375,0,2.493,1.118,2.493,2.492C204.233,130.386,203.115,131.504,201.74,131.504z M201.74,127.638
		c-0.757,0-1.373,0.617-1.373,1.374c0,0.758,0.616,1.374,1.373,1.374c0.758,0,1.375-0.616,1.375-1.374
		C203.115,128.255,202.498,127.638,201.74,127.638z"/>
	<path style="fill:#3D3D3D;" d="M213.074,61.475c-1.375,0-2.492-1.118-2.492-2.492c0-1.374,1.117-2.491,2.492-2.491
		c1.373,0,2.492,1.118,2.492,2.491C215.566,60.357,214.447,61.475,213.074,61.475z M213.074,57.609
		c-0.758,0-1.375,0.617-1.375,1.374c0,0.758,0.617,1.375,1.375,1.375s1.373-0.617,1.373-1.375
		C214.447,58.226,213.832,57.609,213.074,57.609z"/>
	<path style="fill:#3D3D3D;" d="M215.691,80.342c-1.375,0-2.492-1.118-2.492-2.492c0-1.374,1.117-2.491,2.492-2.491
		c1.373,0,2.492,1.118,2.492,2.491C218.184,79.224,217.064,80.342,215.691,80.342z M215.691,76.476
		c-0.758,0-1.375,0.617-1.375,1.374c0,0.758,0.617,1.374,1.375,1.374c0.758,0,1.373-0.617,1.373-1.374
		C217.064,77.093,216.449,76.476,215.691,76.476z"/>
	<path style="fill:#3D3D3D;" d="M197.416,189.953c-1.374,0-2.491-1.117-2.491-2.491c0-1.374,1.117-2.491,2.491-2.491
		c1.375,0,2.492,1.117,2.492,2.491C199.908,188.836,198.791,189.953,197.416,189.953z M197.416,186.088
		c-0.757,0-1.374,0.616-1.374,1.374c0,0.757,0.617,1.374,1.374,1.374c0.758,0,1.374-0.617,1.374-1.374
		C198.79,186.704,198.174,186.088,197.416,186.088z"/>
	<path style="fill:#3D3D3D;" d="M194.925,180.114c-1.374,0-2.492-1.117-2.492-2.491c0-1.374,1.118-2.492,2.492-2.492
		c1.373,0,2.491,1.118,2.491,2.492C197.416,178.997,196.298,180.114,194.925,180.114z M194.925,176.249
		c-0.759,0-1.374,0.616-1.374,1.374c0,0.758,0.615,1.374,1.374,1.374c0.757,0,1.373-0.616,1.373-1.374
		C196.298,176.865,195.682,176.249,194.925,176.249z"/>
	<path style="fill:#3D3D3D;" d="M200.201,171.425c-1.374,0-2.492-1.118-2.492-2.492c0-1.374,1.118-2.491,2.492-2.491
		c1.375,0,2.491,1.117,2.491,2.491C202.692,170.307,201.576,171.425,200.201,171.425z M200.201,167.559
		c-0.758,0-1.374,0.616-1.374,1.374c0,0.758,0.616,1.374,1.374,1.374s1.374-0.616,1.374-1.374
		C201.575,168.175,200.959,167.559,200.201,167.559z"/>
	<path style="fill:#3D3D3D;" d="M164.831,228.943c-1.374,0-2.492-1.117-2.492-2.492c0-1.374,1.118-2.491,2.492-2.491
		c1.374,0,2.492,1.117,2.492,2.491C167.323,227.826,166.206,228.943,164.831,228.943z M164.831,225.078
		c-0.758,0-1.374,0.616-1.374,1.373c0,0.758,0.616,1.374,1.374,1.374c0.757,0,1.374-0.616,1.374-1.374
		C166.206,225.694,165.589,225.078,164.831,225.078z"/>
	<path style="fill:#3D3D3D;" d="M143.948,251.785c-1.374,0-2.492-1.117-2.492-2.492c0-1.374,1.118-2.491,2.492-2.491
		c1.374,0,2.492,1.117,2.492,2.491C146.44,250.668,145.322,251.785,143.948,251.785z M143.948,247.92
		c-0.758,0-1.374,0.616-1.374,1.373c0,0.758,0.616,1.374,1.374,1.374c0.757,0,1.374-0.616,1.374-1.374
		C145.322,248.536,144.706,247.92,143.948,247.92z"/>
	<path style="fill:#3D3D3D;" d="M205.032,269.816c-1.374,0-2.492-1.118-2.492-2.492c0-1.374,1.118-2.491,2.492-2.491
		c1.374,0,2.492,1.117,2.492,2.491C207.524,268.698,206.406,269.816,205.032,269.816z M205.032,265.95
		c-0.758,0-1.374,0.616-1.374,1.374c0,0.758,0.616,1.374,1.374,1.374s1.374-0.616,1.374-1.374
		C206.406,266.566,205.79,265.95,205.032,265.95z"/>
	<path style="fill:#3D3D3D;" d="M202.819,237.115c-1.373,0-2.491-1.118-2.491-2.492c0-1.375,1.118-2.492,2.491-2.492
		c1.374,0,2.491,1.117,2.491,2.492C205.311,235.997,204.193,237.115,202.819,237.115z M202.819,233.248
		c-0.757,0-1.373,0.617-1.373,1.375c0,0.758,0.616,1.373,1.373,1.373c0.758,0,1.374-0.615,1.374-1.373
		C204.193,233.865,203.577,233.248,202.819,233.248z"/>
	<path style="fill:#3D3D3D;" d="M154.088,224.828c-1.374,0-2.492-1.117-2.492-2.491c0-1.374,1.118-2.491,2.492-2.491
		c1.373,0,2.492,1.117,2.492,2.491C156.58,223.711,155.461,224.828,154.088,224.828z M154.088,220.963
		c-0.758,0-1.374,0.617-1.374,1.374c0,0.758,0.616,1.374,1.374,1.374c0.758,0,1.373-0.616,1.373-1.374
		C155.461,221.58,154.846,220.963,154.088,220.963z"/>
	<path style="fill:#3D3D3D;" d="M144.53,297.813c-1.374,0-2.492-1.117-2.492-2.491c0-1.374,1.118-2.492,2.492-2.492
		c1.374,0,2.492,1.118,2.492,2.492C147.021,296.695,145.903,297.813,144.53,297.813z M144.53,293.947
		c-0.757,0-1.374,0.616-1.374,1.374c0,0.758,0.617,1.374,1.374,1.374s1.374-0.616,1.374-1.374
		C145.903,294.564,145.287,293.947,144.53,293.947z"/>
	<path style="fill:#3D3D3D;" d="M151.01,334.079c-1.374,0-2.493-1.117-2.493-2.491c0-1.374,1.119-2.492,2.493-2.492
		c1.374,0,2.492,1.118,2.492,2.492C153.502,332.962,152.384,334.079,151.01,334.079z M151.01,330.214
		c-0.757,0-1.374,0.616-1.374,1.374c0,0.758,0.617,1.374,1.374,1.374c0.757,0,1.374-0.616,1.374-1.374
		C152.384,330.83,151.768,330.214,151.01,330.214z"/>
	<circle style="fill:#3D3D3D;" cx="173.738" cy="58.968" r="1.933"/>
	<rect x="154.352" y="171.425" style="fill:#3D3D3D;" width="8.315" height="4.161"/>
	<rect x="212.833" y="280.989" style="fill:#3D3D3D;" width="1.834" height="4.128"/>
	<rect x="212.833" y="287.653" style="fill:#3D3D3D;" width="1.834" height="4.128"/>
	<rect x="212.833" y="294.317" style="fill:#3D3D3D;" width="1.834" height="4.128"/>
	<rect x="141.365" y="259.397" style="fill:#3D3D3D;" width="7.348" height="2.566"/>
	<rect x="141.365" y="264.153" style="fill:#3D3D3D;" width="7.348" height="2.566"/>
	<rect x="141.365" y="268.91" style="fill:#3D3D3D;" width="7.348" height="2.566"/>
	<rect x="221.406" y="286.9" style="fill:#3D3D3D;" width="7.348" height="2.566"/>
	<rect x="221.406" y="291.657" style="fill:#3D3D3D;" width="7.348" height="2.566"/>
	<rect x="221.406" y="296.414" style="fill:#3D3D3D;" width="7.348" height="2.566"/>
	<rect x="141.365" y="273.666" style="fill:#3D3D3D;" width="7.348" height="2.566"/>
	<rect x="141.365" y="278.423" style="fill:#3D3D3D;" width="7.348" height="2.566"/>
	<rect x="136.337" y="61.475" style="fill:#3D3D3D;" width="5.788" height="1.838"/>
	<rect x="136.337" y="64.846" style="fill:#3D3D3D;" width="5.788" height="1.838"/>
	<rect x="136.337" y="68.217" style="fill:#3D3D3D;" width="5.788" height="1.838"/>
	<circle style="fill:#3D3D3D;" cx="206.27" cy="82.063" r="1.063"/>
	<circle style="fill:#3D3D3D;" cx="188.914" cy="77.291" r="1.063"/>
	<circle style="fill:#3D3D3D;" cx="206.27" cy="87.113" r="1.063"/>
	<circle style="fill:#3D3D3D;" cx="206.27" cy="92.163" r="1.063"/>
	<circle style="fill:#3D3D3D;" cx="206.27" cy="97.214" r="1.063"/>
	<circle style="fill:#3D3D3D;" cx="213.617" cy="115.645" r="1.063"/>
	<circle style="fill:#3D3D3D;" cx="213.617" cy="120.695" r="1.063"/>
	<path style="fill:#3D3D3D;" d="M170.969,119.117c0,0.321-0.261,0.581-0.582,0.581c-0.321,0-0.582-0.26-0.582-0.581
		c0-0.321,0.26-0.581,0.582-0.581C170.708,118.535,170.969,118.795,170.969,119.117z"/>
	<path style="fill:#3D3D3D;" d="M170.969,121.88c0,0.321-0.261,0.581-0.582,0.581c-0.321,0-0.582-0.26-0.582-0.581
		c0-0.321,0.26-0.582,0.582-0.582C170.708,121.298,170.969,121.559,170.969,121.88z"/>
	<path style="fill:#3D3D3D;" d="M170.969,124.644c0,0.321-0.261,0.581-0.582,0.581c-0.321,0-0.582-0.26-0.582-0.581
		c0-0.321,0.26-0.582,0.582-0.582C170.708,124.062,170.969,124.322,170.969,124.644z"/>
	<path style="fill:#3D3D3D;" d="M174.501,142.585c0,0.627-0.51,1.137-1.138,1.137c-0.628,0-1.138-0.509-1.138-1.137
		c0-0.628,0.509-1.138,1.138-1.138C173.991,141.447,174.501,141.956,174.501,142.585z"/>
	<path style="fill:#3D3D3D;" d="M174.501,147.989c0,0.628-0.51,1.137-1.138,1.137c-0.628,0-1.138-0.508-1.138-1.137
		c0-0.629,0.509-1.138,1.138-1.138C173.991,146.852,174.501,147.361,174.501,147.989z"/>
	<path style="fill:#3D3D3D;" d="M174.501,153.395c0,0.628-0.51,1.136-1.138,1.136c-0.628,0-1.138-0.508-1.138-1.136
		s0.509-1.138,1.138-1.138C173.991,152.257,174.501,152.767,174.501,153.395z"/>
	<rect x="193.25" y="149.076" style="fill:#3D3D3D;" width="7.751" height="7.751"/>
	<rect x="157.518" y="147.231" style="fill:#3D3D3D;" width="5.507" height="8.951"/>
	<rect x="221.406" y="171.047" style="fill:#3D3D3D;" width="8.035" height="0.538"/>
	<rect x="235.826" y="156.758" style="fill:#3D3D3D;" width="8.035" height="0.538"/>
	<rect x="232.774" y="103.242" style="fill:#3D3D3D;" width="9.434" height="0.538"/>
	<rect x="202.262" y="75.089" style="fill:#3D3D3D;" width="9.434" height="0.538"/>
	<rect x="190.345" y="152.682" style="fill:#3D3D3D;" width="8.035" height="0.538"/>
	<rect x="160.674" y="173.089" style="fill:#3D3D3D;" width="4.306" height="0.538"/>
	<rect x="138.773" y="182.322" style="fill:#3D3D3D;" width="4.306" height="0.538"/>
	<rect x="138.773" y="184.542" style="fill:#3D3D3D;" width="4.306" height="0.538"/>
	<rect x="148.371" y="218.172" style="fill:#3D3D3D;" width="12.303" height="0.538"/>
	<rect x="226.361" y="205.016" style="fill:#3D3D3D;" width="7.931" height="0.538"/>
	<rect x="234.706" y="219.965" style="fill:#3D3D3D;" width="10.078" height="0.539"/>
	<rect x="234.706" y="217.194" style="fill:#3D3D3D;" width="10.078" height="0.538"/>
	<rect x="234.706" y="214.424" style="fill:#3D3D3D;" width="10.078" height="0.537"/>
	<rect x="234.706" y="211.652" style="fill:#3D3D3D;" width="10.078" height="0.538"/>
	<rect x="234.706" y="208.881" style="fill:#3D3D3D;" width="10.078" height="0.539"/>
	<rect x="170.288" y="194.898" style="fill:#3D3D3D;" width="6.152" height="0.538"/>
	<rect x="170.288" y="192.39" style="fill:#3D3D3D;" width="6.152" height="0.538"/>
	<rect x="170.288" y="189.881" style="fill:#3D3D3D;" width="6.151" height="0.538"/>
	<rect x="170.288" y="187.372" style="fill:#3D3D3D;" width="6.151" height="0.538"/>
	<rect x="170.288" y="184.863" style="fill:#3D3D3D;" width="6.151" height="0.538"/>
	<rect x="170.288" y="182.355" style="fill:#3D3D3D;" width="6.151" height="0.538"/>
	<rect x="170.288" y="179.846" style="fill:#3D3D3D;" width="6.151" height="0.538"/>
	<rect x="216.398" y="119.349" style="fill:#3D3D3D;" width="6.151" height="0.538"/>
	<rect x="216.398" y="116.84" style="fill:#3D3D3D;" width="6.151" height="0.538"/>
	<rect x="216.398" y="114.331" style="fill:#3D3D3D;" width="6.151" height="0.538"/>
	<rect x="203.899" y="131.307" style="fill:#3D3D3D;" width="10.78" height="0.538"/>
	<rect x="203.899" y="128.798" style="fill:#3D3D3D;" width="12.246" height="0.538"/>
	<rect x="202.383" y="126.289" style="fill:#3D3D3D;" width="12.297" height="0.538"/>
	<rect x="183.271" y="109.682" style="fill:#3D3D3D;" width="6.151" height="0.538"/>
	<rect x="170.053" y="87.554" style="fill:#3D3D3D;" width="12.029" height="0.538"/>
	<rect x="177.968" y="63.255" style="fill:#3D3D3D;" width="10.946" height="0.538"/>
	<rect x="184.105" y="325.905" style="fill:#3D3D3D;" width="7.909" height="0.538"/>
	<rect x="184.105" y="323.397" style="fill:#3D3D3D;" width="7.909" height="0.538"/>
	<rect x="184.105" y="320.888" style="fill:#3D3D3D;" width="7.907" height="0.538"/>
	<rect x="184.105" y="318.379" style="fill:#3D3D3D;" width="7.907" height="0.538"/>
	<rect x="184.105" y="315.87" style="fill:#3D3D3D;" width="7.907" height="0.538"/>
	<rect x="184.105" y="313.361" style="fill:#3D3D3D;" width="7.907" height="0.538"/>
	<rect x="184.105" y="310.853" style="fill:#3D3D3D;" width="7.907" height="0.538"/>
	<rect x="150.896" y="290.516" style="fill:#3D3D3D;" width="10.064" height="0.538"/>
	<rect x="150.896" y="288.007" style="fill:#3D3D3D;" width="10.064" height="0.538"/>
	<rect x="150.896" y="285.498" style="fill:#3D3D3D;" width="10.062" height="0.538"/>
	<rect x="150.896" y="282.989" style="fill:#3D3D3D;" width="10.062" height="0.538"/>
	<rect x="150.896" y="280.48" style="fill:#3D3D3D;" width="10.062" height="0.538"/>
	<rect x="150.896" y="277.972" style="fill:#3D3D3D;" width="10.062" height="0.538"/>
	<rect x="150.896" y="275.463" style="fill:#3D3D3D;" width="10.062" height="0.538"/>
	<rect x="170.494" y="202.502" style="fill:#3D3D3D;" width="6.151" height="0.538"/>
	<rect x="125.367" y="189.861" style="fill:#3D3D3D;" width="13.405" height="0.538"/>
	<rect x="207.041" y="222.068" style="fill:#3D3D3D;" width="12.447" height="0.538"/>
	<rect x="180.682" y="153.629" style="fill:#3D3D3D;" width="6.152" height="0.538"/>
	<rect x="150.644" y="94.998" style="fill:#3D3D3D;" width="6.152" height="0.538"/>
	<rect x="128.493" y="162.588" style="fill:#3D3D3D;" width="15.63" height="0.538"/>
	<rect x="183.904" y="190.664" style="fill:#3D3D3D;" width="13.513" height="0.539"/>
	<rect x="176.113" y="199.671" style="fill:#3D3D3D;" width="5.008" height="0.538"/>
	<rect x="138.773" y="186.762" style="fill:#3D3D3D;" width="4.306" height="0.538"/>
	<rect x="71.542" y="176.298" style="fill:#3D3D3D;" width="8.671" height="0.538"/>
	<rect x="71.542" y="178.518" style="fill:#3D3D3D;" width="8.671" height="0.538"/>
	<rect x="71.542" y="180.737" style="fill:#3D3D3D;" width="8.671" height="0.538"/>
	<rect x="229.172" y="142.342" style="fill:#3D3D3D;" width="0.539" height="13.283"/>
	<rect x="235.557" y="151.914" style="fill:#3D3D3D;" width="0.539" height="16.33"/>
	<rect x="194.914" y="154.324" style="fill:#3D3D3D;" width="0.539" height="15.144"/>
	<rect x="202.113" y="101.425" style="fill:#3D3D3D;" width="0.539" height="25.505"/>
	<rect x="154.41" y="112.748" style="fill:#3D3D3D;" width="0.539" height="5.984"/>
	<rect x="151.472" y="112.748" style="fill:#3D3D3D;" width="0.539" height="5.984"/>
	<rect x="148.534" y="112.748" style="fill:#3D3D3D;" width="0.539" height="5.984"/>
	<rect x="145.597" y="112.748" style="fill:#3D3D3D;" width="0.539" height="5.984"/>
	<rect x="142.659" y="112.748" style="fill:#3D3D3D;" width="0.539" height="5.984"/>
	<rect x="136.718" y="162.76" style="fill:#3D3D3D;" width="0.539" height="5.984"/>
	<rect x="133.78" y="162.76" style="fill:#3D3D3D;" width="0.539" height="5.984"/>
	<rect x="130.842" y="162.76" style="fill:#3D3D3D;" width="0.539" height="5.984"/>
	<rect x="150.254" y="145.558" style="fill:#3D3D3D;" width="0.539" height="22.74"/>
	<rect x="135.152" y="169.013" style="fill:#3D3D3D;" width="0.539" height="8.476"/>
	<rect x="142.535" y="168.932" style="fill:#3D3D3D;" width="0.539" height="8.476"/>
	<rect x="79.926" y="162.857" style="fill:#3D3D3D;" width="0.539" height="26.144"/>
	<rect x="150.572" y="84.781" style="fill:#3D3D3D;" width="0.539" height="19.87"/>
	<rect x="140.811" y="69.136" style="fill:#3D3D3D;" width="0.539" height="16.721"/>
	<rect x="178.781" y="71.645" style="fill:#3D3D3D;" width="0.539" height="19.87"/>
	<rect x="186.344" y="202.091" style="fill:#3D3D3D;" width="9.188" height="1.909"/>
	<polygon style="fill:#3D3D3D;" points="187.25,237.115 183.758,233.424 183.758,219.403 187.25,219.403 	"/>
</g>
</svg>
