<?xml version="1.0" encoding="UTF-8"?>
<svg version="1.1" viewBox="0 0 2048 1630" width="1280" height="1280" xmlns="http://www.w3.org/2000/svg">
<path transform="translate(553,1123)" d="m0 0h15l16 2 17 5 19 9 14 10 11 9 7 7 9 12 9 19 7 23 1 4 4 1 83 1 3-10 6-12 7-9 8-8 12-7 3-1 11-1h412l15 3 9 5 10 9 7 10 5 11 3 10 1 8v12l-3 16-5 12-7 11-9 9-14 7-3 1-208 1h-216l-12-2-10-6-9-8-7-10-6-12-4-10h-81l-5 1-11 33-9 17-10 13-9 9-15 10-13 8-15 5-16 4-10 1h-21l-16-2-15-5-15-8-14-10-12-11-10-11-9-15-7-15-4-13-2-12v-23l3-18 6-18 10-19 9-12 12-12 14-11 15-8 18-6zm-35 81-8 5-4 5-2 5 1 7 5 8 9 10 38 38h2l2 4h2v2l11 9 3 1h11l6-4 6-10 16-29 3-7v-7l-4-7-8-5-8-1-6 4-7 8-7 11v2h-4l-2-4-41-41-8-4zm343 15-6 3-4 6-2 10 1 11 4 7 4 3 5 1h66l9-3 4-5 2-9v-10l-4-8-5-5-3-1zm123 0-5 3-4 5-2 4-1 11 2 8 6 8 6 2h68l8-3 4-5 2-7v-12l-4-8-6-5-3-1zm124 0-7 4-4 6-1 4v12l3 8 4 5 6 2h71l5-3 5-8 1-5v-11l-4-8-7-6z" fill="#FEFEFE"/>
<path transform="translate(1234,318)" d="m0 0h25l8 2 1 5 1 16 3 10 5 8 8 8 30 10 25 12 7 3 5 1h8l11-3 11-7 9-10 3-1 9 7 13 14 5 6v5l-7 7-6 9-4 9-1 13 3 12 11 24 10 28 6 9 7 6 10 4 20 2 6 3v35l-4 5-20 1-11 4-8 5-7 14-7 19-11 26-4 11-1 5v10l3 10 5 8 11 11-1 5-15 15-7 8-3 2-5-1-13-12-9-5-4-1h-13l-13 4-22 10-19 7-10 4-8 6-6 7-4 11-1 5-1 19-4 2h-30l-6-2-4-5-1-18-2-8-5-9-7-6-11-5-12-3-25-12-15-6-5-1h-12l-11 5-5 4h-2v2l-8 7-5 1-11-9-8-8-8-10 2-4 7-8h2l7-14 2-6v-9l-5-16-10-22-6-16-4-11-6-9-7-6-12-4-20-2-3-3-1-3v-27l2-7 8-3 19-3 13-8 7-8 4-8 6-17 10-24 4-11 1-5v-11l-4-11-8-10-8-9 2-4 9-11 10-10 8-5 8 7 10 8 8 4 8 2h7l13-5 25-11 25-9 9-6 6-8 4-11 1-15 4-7 2-2zm-5 92-20 4-20 7-13 7-13 9-14 12-7 7-9 11-7 10-10 21-4 11-4 22-1 9v25l3 15 5 16 8 18 6 10 10 14 8 9 8 7 11 9 15 9 13 6 14 5 13 3 14 2h24l19-3 16-4 21-10 15-10 14-12 8-8 10-13 11-19 6-15 5-19 1-7v-36l-2-14-6-20-9-19-7-11-12-14-7-7h-2v-2l-14-11-10-7-15-7-18-6-20-4z" fill="#FEFEFE"/>
<path transform="translate(1113,835)" d="m0 0 45 1 12 3 8 4 8 7 7 10 5 10 5 19v21l-4 16-6 11-8 10-8 7-9 4-16 3h-416l-13-4-9-6-9-9-6-10-6-18-1-7v-16l4-17 5-12 10-13 8-6 13-6 5-1zm-291 42-35 1-6 5-4 9-1 7 2 9 4 6 5 4 9 2h58l10-3 6-7 2-6v-13l-6-10-5-3-4-1zm90 1-6 3-4 5-2 7v12l4 8 6 5 3 1 31 1h25l14-1 7-4 5-10v-12l-4-9-5-5-2-1zm167-1-42 1-6 3-5 6-2 5v14l4 8 5 4 3 1h71l6-4 4-6 2-6v-11l-4-8-5-5-2-1-9-1z" fill="#FEFEFE"/>
<path transform="translate(498,499)" d="m0 0 22 1 20 4 16 6 19 10 12 9 10 9 9 11 11 15 9 19 4 13 3 14 1 11v22l-2 15-5 18-9 19-10 15-12 13-14 13-15 10-12 6-15 5-9 2-11 2-18 1-24-2-5-3-4 1-24-8-14-8-13-10-10-9-12-15-9-15-6-12-8-24-2-11v-28l4-21 8-21 7-13 7-11 9-11 11-11 13-10 21-11 17-6 17-3zm1 68-8 4-3 3-2 6-1 8-1 23-5 2-32 2-6 6-3 9 1 7 4 6 7 3 11 2 23 1 1 23 1 11 3 6 6 5 2 1h9l7-3 5-8 3-26 2-8 26-2 11-4 3-3 3-10-1-6-5-8-5-3-5-1-29-1-1-30-3-8-7-6-4-1z" fill="#FEFEFE"/>
<path transform="translate(1230,444)" d="m0 0h33l17 4 15 6 10 6 9 7 10 9 11 14 8 14 7 19 2 14v24l-3 17-6 17-10 16-12 14-8 7-16 10-16 7-13 4h-12l-1 1h-21l-16-3-15-5-13-7-10-8-10-9-9-11-9-15-8-21-2-9-1-12v-14l2-15 6-18 8-15 10-13 5-6 11-9 12-9 17-7z" fill="#FEFEFE"/>
<path transform="translate(1417,1011)" d="m0 0 16 1 15 4 15 8 11 10 9 13 5 13 1 7v16l-4 16-6 12-11 13-13 9-13 5-14 3h-13l-16-4-12-6-12-11-7-10-7-14-3-9-1-15 2-13 6-14 10-14 7-7 11-7 11-4z" fill="#FEFEFE"/>
<path transform="translate(726,532)" d="m0 0 226 1 13 1 8 4 5 8v7l-6 7-4 2-7 1h-299l-8-3-5-5-1-2v-9l4-6 7-4 10-1z" fill="#FEFEFE"/>
<path transform="translate(1245,886)" d="m0 0h22l19 3 21 6 22 9 16 8 17 11 10 8 6 5v2l4 2v2l4 2 7 8 10 13 6 12 1 7-5 8-5 4h-9l-5-3-10-13-8-10-6-6v-2l-4-2-7-7-14-10-13-8-15-7-18-6-17-4-26-3-8-3-6-7-1-6 4-8 5-4z" fill="#FEFEFE"/>
<path transform="translate(497,798)" d="m0 0 8 1 5 5 11 16 8 10 15 15 14 11 10 7 19 10 15 5 19 4 30 3 7 3 4 4 2 4v7l-3 5-5 5-4 1h-19l-19-3-19-5-19-7-26-13-14-10-14-12-17-17-12-16-5-10-2-6 1-7 4-6z" fill="#FEFEFE"/>
<path transform="translate(1393,1154)" d="m0 0 7 1 6 4 4 7-1 9-8 14-13 15-17 17-14 11-15 9-12 6-7 1-9-6-4-6v-7l4-6 17-10 15-10 10-9 16-16 10-14 7-8z" fill="#FEFEFE"/>
</svg>
