<?xml version="1.0" encoding="UTF-8"?>
<svg version="1.1" viewBox="0 0 1348 1236" width="1280" height="1280" xmlns="http://www.w3.org/2000/svg">
<path transform="translate(269,928)" d="m0 0 20 1 19 4 16 6 15 8 14 10 10 9 12 12 7 11 7 14 7 21 3 13h92l6-13 6-11 6-8 9-9 10-6 7-3 17-1h434l16 3 12 6 11 10 8 13 5 12 3 13v18l-3 16-8 17-7 9-8 8-14 7-3 1-14 1h-445l-12-3-9-6-11-11-8-13-6-15-2-3h-91l-4 9-6 19-8 19-10 15-9 10-10 9-14 9-14 8-18 6-13 3-9 1h-25l-17-2-17-6-18-10-13-10-10-9-8-8-9-13-8-14-7-19-3-12-1-7v-23l3-19 6-18 8-17 8-12 8-10 8-8 14-11 13-8 14-6 19-5zm-41 87-10 6-4 6-2 8 6 12 15 16 6 5 7 8 11 11 8 7 17 17 6 4 3 1h12l7-6 12-21 13-24 1-3v-7l-6-9-7-4-9-1-8 6-7 9-7 11h-3l-7-8h-2v-2l-38-38-9-4zm370 16-7 2-6 7-2 6v15l3 8 6 5 4 1h74l8-3 4-5 2-8v-13l-5-10-5-4-3-1zm263 0-6 3-6 7-2 7v10l3 9 6 7 4 1h78l6-4 4-8 1-5v-12l-4-8-5-5-5-2zm-71 0-66 1-7 8-2 5v16l4 8 6 5 4 1h74l7-3 5-6 2-7v-13l-4-8-7-6-6-1z" fill="#FEFEFE"/>
<path transform="translate(998,65)" d="m0 0h22l10 2 1 1 2 23 4 12 4 6 8 8 35 12 19 9 10 5 12 3 16-3 10-6 13-13 3-1 10 9 12 12 7 9-1 5-7 7-6 9-4 8-1 3v18l5 13 10 22 10 28 6 10 7 6 8 4 13 2 15 2 3 2 1 3v34l-3 5-1 1-20 1-13 4-9 6-6 10-12 32-11 25-3 9-1 11 1 9 6 12 9 10 5 5-2 5-14 15-11 11-3 1-6-4-11-10-8-5-6-2h-14l-9 2-26 12-24 9-10 4-8 6-7 8-4 11-1 5-1 21-2 2h-38l-5-3-2-2-1-6-1-18-4-11-7-9-14-7-15-4-25-12-17-7-6-1h-12l-12 5-6 5h-2l-2 4h-2v2l-7 5-6-3-13-12-10-11-3-5 7-8 7-7 6-12 2-7v-8l-5-16-11-25-7-19-4-10-6-10-9-7-14-4-19-2-4-4-1-4v-21l2-14 10-3 15-2 10-4 9-6 7-8 5-12 11-28 8-18 3-12v-12l-5-12-7-9-4-4v-2l-3-1-2-3 1-5 11-12 7-8 10-8 4 2 10 9 10 7 4 2 12 3 7-1 13-5 24-11 28-10 10-6 7-9 4-10 1-15 2-7 5-6zm-10 99-20 4-22 8-13 7-12 8-11 9-17 17-12 16-9 17-8 22-4 22-1 9v26l3 16 3 11 8 20 8 15 7 10 8 10 16 16 12 9 9 6 19 9 14 5 17 4 15 2h23l20-3 19-5 20-9 10-7 11-7 13-12 5-5 11-13 11-18 8-17 6-21 2-12v-39l-2-14-5-18-11-24-7-11-11-13-17-17-16-12-14-8-30-10-16-3z" fill="#FEFEFE"/>
<path transform="translate(475,620)" d="m0 0h429l17 2 11 4 10 8 9 12 6 13 4 14 1 5v21l-3 15-8 15-7 9-7 7-12 6-13 3-11 1h-437l-13-3-11-6-8-7-9-13-6-14-3-16v-16l4-18 5-12 8-12 7-7 15-8 7-2zm43 45-6 4-5 6-2 6v13l5 10 5 4 6 2 24 1h35l12-1 8-4 5-6 2-6v-14l-4-8-7-6-3-1zm289 0-25 1-6 4-4 5-3 12 2 12 7 8 7 3h72l8-4 6-10 1-4v-11l-5-10-6-5-3-1zm-158 1-6 3-4 6-2 7v12l5 10 5 4 6 2h70l8-3 6-7 2-6v-12l-4-10-7-6z" fill="#FEFEFE"/>
<path transform="translate(194,260)" d="m0 0h34l17 3 16 5 25 12 14 10 13 12 9 11 11 15 10 21 5 17 3 14 1 25-1 18-4 17-6 16-8 16-12 17-19 19-14 11-14 8-12 5-12 4-9 2-11 2-21 1-24-2-4-3h-10l-22-8-13-7-16-12-7-6-7-8-10-13-9-15-7-14-7-21-3-15-1-19 2-18 5-22 10-23 11-18 7-9 11-12 11-9 10-7 19-10 20-7zm13 72-8 4-4 4-2 6-2 33-4 2-34 2-4 2-5 7-2 6v7l3 6 4 4 11 3 28 2h3l2 36 4 8 5 4 9 2 9-3 5-5 3-7 3-27 2-6 2-1 26-2 12-5 4-6 2-10-4-9-5-5-5-2-6-1-26-1-2-1-1-8v-21l-4-11-7-6-4-1z" fill="#FEFEFE"/>
<path transform="translate(992,200)" d="m0 0h33l18 4 16 6 15 9 13 11 8 8 8 11 8 13 8 21 3 21v18l-2 16-5 16-4 10-10 16-11 12-5 5-7 6-16 10-20 8-10 3h-13l-4 2h-13l-21-3-19-6-13-7-14-11-15-15-10-16-7-15-5-16-2-10v-30l2-12 7-19 8-15 10-13 6-7 11-9 9-7 15-8 13-4z" fill="#FEFEFE"/>
<path transform="translate(1184,809)" d="m0 0h23l15 4 12 5 10 7 11 11 7 11 5 12 2 12v12l-4 18-8 16-12 13-8 6-12 6-18 5-7 1h-8l-17-4-12-5-11-8-8-9-10-16-6-17-1-13 2-15 5-13 7-11 7-9 10-9 14-7z" fill="#FEFEFE"/>
<path transform="translate(419,295)" d="m0 0h111l170 1 10 2 6 4 4 6 1 8-4 6-8 5-11 1h-312l-10-2-8-6-1-2v-11l4-6 7-4 6-1z" fill="#FEFEFE"/>
<path transform="translate(1008,674)" d="m0 0h22l19 3 19 5 16 6 19 8 16 9 11 7 14 11 22 22 11 15 6 12 1 7-5 9-6 4h-9l-6-4-6-7-10-13-11-12-7-7-17-13-15-9-19-9-19-6-20-4-24-3-8-3-5-4-2-3-1-6 3-8 7-6z" fill="#FEFEFE"/>
<path transform="translate(205,580)" d="m0 0 9 1 7 8 7 11 11 14 15 15 11 9 17 12 19 10 17 6 21 4 31 3 8 3 4 5 2 4v8l-4 6-5 4-3 1h-22l-19-3-17-4-22-8-27-13-15-10-13-11-8-7-13-13-11-14-7-11-4-9-1-7 3-7 5-5z" fill="#FEFEFE"/>
<path transform="translate(1167,961)" d="m0 0 8 3 7 6 2 4v7l-7 14-10 13-9 9-7 8-12 11-15 11-15 9-13 6h-6l-9-6-4-7-1-6 6-8 25-15 12-9 10-9 11-11 14-19 7-8z" fill="#FEFEFE"/>
</svg>
